<?xml version="1.0" encoding="UTF-8"?>
<svg version="1.1" xmlns="http://www.w3.org/2000/svg" width="1175" height="1142">
<path d="M0 0 C4.1516492 0.13467773 8.30418224 0.1661261 12.4576056 0.20971584 C20.34659765 0.30818109 28.23046339 0.49997643 36.11674744 0.72498107 C44.96357716 0.97245249 53.81099653 1.10942782 62.66019881 1.23950529 C138.41161624 2.38044296 138.41161624 2.38044296 172.59986329 6.43902493 C173.30314759 6.52106167 174.00643189 6.60309841 174.73102784 6.68762112 C197.50613171 9.37212947 220.15211959 13.53924403 241.97486329 20.68902493 C242.85899903 20.9747134 243.74313478 21.26040188 244.65406251 21.55474758 C280.61186293 33.35369964 313.26404677 54.19777552 330.97486329 88.68902493 C343.81229407 115.33382571 347.20429927 143.35417109 347.22486329 172.62652493 C347.22553803 173.49141537 347.22621278 174.35630581 347.22690797 175.24740505 C347.2035081 194.14552938 345.73963382 211.90152463 338.97486329 229.68902493 C338.72752442 230.34177395 338.48018556 230.99452297 338.22535157 231.66705227 C331.78334802 248.25126858 322.63034204 262.21305652 309.97486329 274.68902493 C308.86884767 275.8105093 308.86884767 275.8105093 307.74048829 276.95464993 C295.55444187 288.59094989 278.65915708 295.78643184 263.97486329 303.68902493 C264.86455812 304.20904079 264.86455812 304.20904079 265.77222657 304.73956203 C272.52474697 308.69214534 279.25805736 312.6760482 285.97486329 316.68902493 C286.69770509 317.11989407 287.42054688 317.55076321 288.16529298 317.99468899 C317.78770553 335.80476392 338.44258131 363.69708567 347.00220704 397.24761868 C347.33442822 398.72631222 347.65824178 400.20691281 347.97486329 401.68902493 C348.25197145 402.87673489 348.25197145 402.87673489 348.53467774 404.08843899 C350.50551373 413.79290193 350.31156971 423.60753533 350.29053712 433.46636868 C350.2874056 436.52273129 350.3107967 439.57809585 350.33619142 442.63433743 C350.4752562 485.53420029 338.76104107 525.12076814 308.97486329 556.68902493 C307.8901172 557.88785305 307.8901172 557.88785305 306.78345704 559.11089993 C259.11618522 609.76241719 175.64136175 616.64861668 110.40317369 618.80720425 C92.47120776 619.34479547 74.53649714 619.65667384 56.59785676 619.85921192 C48.1714119 619.9567355 39.74931786 620.09469787 31.32544923 620.32818508 C23.91177279 620.53359919 16.50115397 620.66400689 9.08468223 620.70555365 C5.17799555 620.72990057 1.27973555 620.78960421 -2.62430358 620.93992138 C-26.14596914 621.80998883 -26.14596914 621.80998883 -32.57688498 616.63602924 C-36.83450724 611.67844393 -39.55722031 606.20667736 -41.98242545 600.17579746 C-43.39785751 596.80011935 -45.22464809 593.92069097 -47.23216796 590.86480618 C-48.434283 588.91055875 -49.63610834 586.9561331 -50.83763671 585.00152493 C-52.19830589 582.78928048 -53.55898321 580.57704104 -54.91966796 578.36480618 C-55.5985205 577.26088528 -56.27737304 576.15696438 -56.97679687 575.01959133 C-60.32507359 569.57534925 -63.6751843 564.13223602 -67.02513671 558.68902493 C-68.35847913 556.52236385 -69.69181245 554.35569718 -71.02513671 552.18902493 C-72.01513671 550.58027493 -72.01513671 550.58027493 -73.02513671 548.93902493 C-79.02513671 539.18902492 -79.02513671 539.18902492 -81.02782226 535.93463039 C-82.35216739 533.78258978 -83.67654851 531.63057131 -85.00096679 529.47857571 C-88.10359601 524.43713776 -91.20588018 519.39548857 -94.30684447 514.35302639 C-95.75926492 511.99130386 -97.21189532 509.62971049 -98.66454101 507.26812649 C-99.6801257 505.61688465 -100.69540962 503.96545784 -101.71068358 502.31402493 C-102.3339453 501.3008218 -102.95720702 500.28761868 -103.59935546 499.24371243 C-104.14164794 498.36183254 -104.68394042 497.47995266 -105.24266601 496.57134914 C-106.8403081 493.84781059 -106.8403081 493.84781059 -108.2687422 492.16578364 C-113.14579705 485.71076364 -112.74910525 479.02365033 -112.71388793 471.23254299 C-112.72538814 469.75907137 -112.73903312 468.2856152 -112.75462878 466.81218123 C-112.79094711 462.77559222 -112.79617466 458.73947795 -112.79603243 454.70274758 C-112.80119251 450.34380555 -112.83489028 445.98506636 -112.86455321 441.62623501 C-112.92376517 432.09881868 -112.94569532 422.57153507 -112.96021676 413.04396057 C-112.96950614 407.08776467 -112.98679484 401.13160905 -113.00572371 395.17543697 C-113.05704726 378.6652585 -113.10015193 362.15511648 -113.10935187 345.64485455 C-113.10994658 344.58879432 -113.11054129 343.53273409 -113.11115401 342.44467203 C-113.11232792 340.30399943 -113.11349734 338.16332682 -113.1146623 336.02265421 C-113.11525069 334.96010049 -113.11583908 333.89754677 -113.1164453 332.80279446 C-113.11702783 331.73893397 -113.11761036 330.67507349 -113.11821054 329.57897481 C-113.1292284 312.36255725 -113.20065618 295.1469757 -113.2988006 277.9308553 C-113.39889387 260.22994918 -113.44987235 242.52945792 -113.45163882 224.82826304 C-113.45371868 214.89989411 -113.47616748 204.97254181 -113.55245376 195.04444027 C-113.61717303 186.58522831 -113.63638491 178.12738995 -113.5982206 169.66799185 C-113.58008296 165.35872939 -113.58211248 161.05218474 -113.64209914 156.74324131 C-113.88701055 138.06784459 -113.33224545 123.42449697 -100.56743288 108.54152346 C-98.32116267 105.84346043 -96.54615284 102.96181939 -94.71263671 99.97027493 C-94.09928466 99.00927883 -93.48593261 98.04828274 -92.85399413 97.05816555 C-92.25047118 96.11134914 -91.64694823 95.16453274 -91.02513671 94.18902493 C-84.5647361 84.07451628 -78.04570373 73.99984733 -71.49388671 63.94439602 C-69.22892263 60.46638102 -66.96898484 56.98513498 -64.71263671 53.50152493 C-64.27838378 52.83113186 -63.84413085 52.16073879 -63.39671874 51.47003078 C-60.65137158 47.22422804 -57.9237263 42.96743771 -55.20482421 38.70464993 C-54.52460204 37.63883694 -53.84437987 36.57302395 -53.14354491 35.4749136 C-51.83050849 33.41624837 -50.51899314 31.35661167 -49.20946288 29.29571438 C-47.94239184 27.30902387 -46.64214701 25.34310974 -45.30997252 23.39947414 C-43.5669307 20.74184769 -42.34027711 18.10775931 -41.15871215 15.16075039 C-33.03742712 -2.89760078 -17.15747418 -0.63580597 0 0 Z M25.97486329 109.68902493 C25.97486329 161.49902493 25.97486329 213.30902493 25.97486329 266.68902493 C43.05236329 266.73027493 60.12986329 266.77152493 77.72486329 266.81402493 C85.75266114 266.84133694 85.75266114 266.84133694 93.94263673 266.86920071 C98.82547847 266.87589788 98.82547847 266.87589788 103.70832276 266.87991238 C105.84911903 266.88294289 107.98991234 266.88989016 110.13068604 266.90017605 C141.19318399 267.04169798 173.67768195 265.6392043 197.65455079 243.16558743 C206.68866091 233.52311972 212.20316482 220.70894857 213.97486329 207.68902493 C214.08572267 206.87433743 214.19658204 206.05964993 214.31080079 205.22027493 C216.90682127 181.92625332 215.59493837 156.97769541 200.97486329 137.68902493 C185.18379561 118.1991486 158.28711411 111.89842579 134.57645631 109.11959743 C126.56805078 108.28872458 118.52810582 108.42329672 110.48658204 108.45855618 C108.64924615 108.4597533 106.81190964 108.46020002 104.97457337 108.45994473 C101.14821423 108.46149623 97.32195041 108.46967923 93.49561524 108.48321438 C88.64846283 108.5001653 83.80141486 108.50402871 78.95423627 108.5032692 C75.16614285 108.5035443 71.3780712 108.50907986 67.58998513 108.51627064 C65.80543963 108.51940068 64.02089171 108.52141105 62.23634362 108.52216434 C59.7177465 108.52439205 57.19924864 108.53326798 54.68067384 108.54376125 C53.97930802 108.54330807 53.27794221 108.54285488 52.55532289 108.54238796 C43.66714726 108.59516988 34.87765939 109.22045671 25.97486329 109.68902493 Z M25.97486329 347.68902493 C25.97486329 402.46902493 25.97486329 457.24902493 25.97486329 513.68902493 C42.70173829 513.75089993 59.42861329 513.81277493 76.66236329 513.87652493 C81.90071046 513.90383694 87.13905763 513.93114895 92.53614259 513.9592886 C97.32316512 513.96933549 97.32316512 513.96933549 102.11019349 513.9753561 C104.20595688 513.97989634 106.30171355 513.99030498 108.39742494 514.00575161 C139.64971858 514.22413728 173.92520818 510.68787604 197.66626954 488.04839993 C214.48038677 470.86442902 218.48544456 450.67370424 218.32666993 427.27032375 C217.93524343 408.68095087 213.80436899 391.43000542 201.97486329 376.68902493 C201.21109376 375.66422024 201.21109376 375.66422024 200.43189454 374.61871243 C186.6413712 357.25286822 163.05979797 350.27631824 141.97486329 347.68902493 C137.92895952 347.44774533 133.90272355 347.43393447 129.85059571 347.46197414 C128.12352498 347.46161254 128.12352498 347.46161254 126.36156392 347.46124363 C122.68440424 347.46272031 119.0074548 347.47787676 115.33033204 347.49371243 C113.0401719 347.49665797 110.7500104 347.49869526 108.45984864 347.49981594 C100.02733281 347.51024403 91.59484592 347.53816649 83.16236329 347.56402493 C54.85455079 347.62589993 54.85455079 347.62589993 25.97486329 347.68902493 Z " fill="#002748" transform="translate(757.0251367092133,183.31097507476807)"/>
<path d="M0 0 C1.12432434 -0.00571014 2.24864868 -0.01142029 3.40704346 -0.01730347 C5.25083084 -0.01898026 5.25083084 -0.01898026 7.13186646 -0.02069092 C8.42979126 -0.02565582 9.72771606 -0.03062073 11.06497192 -0.03573608 C14.62287519 -0.04883674 18.18075961 -0.05530028 21.73868322 -0.05974674 C23.96261313 -0.06268077 26.18653792 -0.06678616 28.41046524 -0.07125092 C35.37192093 -0.08491865 42.33336489 -0.09458929 49.29483306 -0.09845281 C57.32501898 -0.10293428 65.35503473 -0.12048927 73.38516891 -0.1494534 C79.59676043 -0.17107906 85.8083041 -0.18115753 92.01993287 -0.18249393 C95.72796369 -0.18354117 99.43583441 -0.18943185 103.14382553 -0.20731354 C107.28056906 -0.22687571 111.41695678 -0.22250176 115.55374146 -0.21600342 C116.77888458 -0.2252182 118.00402771 -0.23443298 119.26629639 -0.243927 C129.83444719 -0.1918407 129.83444719 -0.1918407 134.47219849 3.14044189 C137.19171384 7.21971493 137.19458227 10.34898308 136.47219849 15.14044189 C135.23025944 18.23086473 133.51333111 20.88244716 131.65969849 23.64044189 C130.91417725 24.80265259 130.91417725 24.80265259 130.15359497 25.98834229 C128.61122025 28.38470092 127.04290158 30.7625857 125.47219849 33.14044189 C124.55075074 34.56481723 123.63139727 35.99055008 122.71438599 37.41778564 C120.91060492 40.22173176 119.09732575 43.01915976 117.27688599 45.81231689 C114.36426521 50.29233122 111.50746708 54.80650532 108.65969849 59.32794189 C104.28232269 66.27730281 99.88540765 73.21377739 95.47219849 80.14044189 C89.11308945 90.12425179 82.78638934 100.12818076 76.47219849 110.14044189 C69.56744261 121.08914783 62.64170463 132.02400601 55.6880188 142.94171143 C49.92524262 151.99273469 44.19582299 161.06462767 38.47219849 170.14044189 C31.56603489 181.09138001 24.639271 192.0287164 17.68362427 202.94830322 C13.93358924 208.83760266 10.1967227 214.73497971 6.47219849 220.64044189 C2.15568272 227.48454309 -2.18058619 234.31580043 -6.52780151 241.14044189 C-12.38850839 250.34199222 -18.22288457 259.55980268 -24.04244995 268.78741455 C-26.10158045 272.04939676 -28.16561111 275.30826761 -30.22994995 278.56695557 C-31.73816917 280.95274902 -33.23862759 283.34329524 -34.73873901 285.73419189 C-36.49775849 288.53213604 -38.29059522 291.30057067 -40.12936401 294.04669189 C-40.51704956 294.63853271 -40.90473511 295.23037354 -41.3041687 295.84014893 C-42.32271242 297.39331492 -43.35815671 298.93536198 -44.39498901 300.47637939 C-45.84047319 303.06882996 -45.84047319 303.06882996 -44.75338745 305.54644775 C-43.63477775 307.91402307 -42.44310189 310.09299864 -41.05123901 312.30841064 C-40.55390259 313.10529297 -40.05656616 313.90217529 -39.54415894 314.72320557 C-39.00251099 315.58276855 -38.46086304 316.44233154 -37.90280151 317.32794189 C-36.71876607 319.2234994 -35.5351931 321.11934584 -34.35202026 323.01544189 C-33.72730835 324.01446533 -33.10259644 325.01348877 -32.45895386 326.04278564 C-29.18765854 331.29009222 -25.95254645 336.55958555 -22.71530151 341.82794189 C-21.35468147 344.04021656 -19.99400388 346.25245583 -18.63327026 348.46466064 C-17.95441772 349.56858154 -17.27556519 350.67250244 -16.57614136 351.80987549 C-13.22786463 357.25411757 -9.87775392 362.6972308 -6.52780151 368.14044189 C-5.1944591 370.30710297 -3.86112577 372.47376964 -2.52780151 374.64044189 C-1.86780151 375.71294189 -1.20780151 376.78544189 -0.52780151 377.89044189 C6.80553182 389.80710856 14.13886515 401.72377523 21.47219849 413.64044189 C22.13235962 414.71318359 22.79252075 415.78592529 23.47268677 416.89117432 C24.80446516 419.05535486 26.13617103 421.21958004 27.46780396 423.3838501 C30.82433103 428.83892486 34.18216034 434.29319026 37.54251099 439.74591064 C43.94158355 450.13219819 50.32588706 460.52670406 56.65969849 470.95294189 C61.5497244 479.00185316 66.479791 487.02452867 71.44436646 495.02764893 C75.73933197 501.95197452 80.01569357 508.88758264 84.28469849 515.82794189 C84.95613892 516.91953613 85.62757935 518.01113037 86.31936646 519.13580322 C87.68760181 521.36045013 89.05576552 523.5851411 90.42385864 525.80987549 C93.10830562 530.17474147 95.79393994 534.53887609 98.47976685 538.90289307 C99.80758517 541.06049616 101.13522203 543.21821094 102.462677 545.3760376 C106.52976352 551.9868584 110.60231135 558.59427372 114.67922974 565.19903564 C116.6844647 568.45418762 118.68025924 571.71498694 120.67532349 574.97637939 C123.12130551 578.96948868 125.61016354 582.92917137 128.14407349 586.86700439 C128.7083606 587.76113037 129.27264771 588.65525635 129.85403442 589.57647705 C130.89152235 591.22036634 131.9455251 592.85401536 133.02005005 594.47393799 C136.42573418 599.93667448 137.54158643 604.71005307 136.47219849 611.14044189 C134.28093033 614.23844171 133.06163513 614.94396301 129.47219849 616.14044189 C127.46904302 616.23813069 125.46275829 616.27543855 123.45722961 616.28088379 C121.5708654 616.28944901 121.5708654 616.28944901 119.64639282 616.29818726 C118.25003062 616.2994326 116.8536683 616.3005577 115.45730591 616.30157471 C113.98878352 616.30620333 112.52026234 616.31122805 111.05174255 616.31661987 C107.05990957 616.32974179 103.0680934 616.33618845 99.07624221 616.34063053 C96.58212479 616.34356166 94.08801197 616.34766655 91.59389687 616.3521347 C83.78988675 616.36580923 75.98588714 616.37547605 68.18186587 616.3793366 C59.17421914 616.38381707 50.16672418 616.40136462 41.1591236 616.43033719 C34.19596648 616.4519562 27.23285205 616.462041 20.26966172 616.46337771 C16.11113897 616.46442561 11.95275888 616.47033001 7.79427147 616.48819733 C3.8814988 616.50468179 -0.03102401 616.50683178 -3.94381905 616.49805832 C-5.37809671 616.49728813 -6.81238783 616.50162826 -8.24663162 616.51151657 C-10.20834072 616.52424581 -12.1701503 616.51656401 -14.13188171 616.50793457 C-15.77696826 616.51013441 -15.77696826 616.51013441 -17.45528889 616.51237869 C-22.29998102 615.92591429 -25.54156259 614.12038902 -28.97702026 610.70684814 C-32.69199202 605.88698618 -35.44302116 600.40870871 -38.34030151 595.07794189 C-38.99641657 593.8818804 -39.65316861 592.68616814 -40.31051636 591.49078369 C-41.6886375 588.98279489 -43.06329323 586.47295137 -44.43551636 583.96173096 C-46.48157561 580.22033143 -48.54352514 576.48787575 -50.60983276 572.75762939 C-56.86712487 561.45649554 -63.08572662 550.1365581 -69.21530151 538.76544189 C-73.91880101 530.04078969 -78.75150743 521.39794203 -83.65353394 512.7835083 C-88.09793394 504.95286695 -92.388537 497.04515762 -96.65499878 489.11651611 C-100.34143179 482.28364088 -104.12249093 475.51145078 -107.96530151 468.76544189 C-113.29079068 459.41172915 -118.42624285 449.96540051 -123.51022339 440.47857666 C-127.97314456 432.15413408 -132.52158858 423.88299317 -137.13180542 415.63946533 C-139.98034356 410.54019349 -142.81575115 405.43361097 -145.65280151 400.32794189 C-146.28315308 399.19405029 -146.91350464 398.06015869 -147.56295776 396.89190674 C-150.97502991 390.75163995 -154.37713058 384.60600154 -157.76608276 378.45294189 C-158.11813782 377.81391434 -158.47019287 377.17488678 -158.83291626 376.51649475 C-160.52267498 373.44889796 -162.21114606 370.3806042 -163.89743042 367.31109619 C-167.14041312 361.41963543 -170.4192901 355.55292064 -173.76242065 349.71783447 C-174.30935955 348.76199337 -174.30935955 348.76199337 -174.86734772 347.78684235 C-175.75378045 346.2378217 -176.64073526 344.68909984 -177.52780151 343.14044189 C-177.52869715 343.96485695 -177.52869715 343.96485695 -177.52961087 344.80592686 C-177.56550615 377.38153726 -177.6221471 409.95703604 -177.70572247 442.53255713 C-177.7157399 446.44408801 -177.72558404 450.3556193 -177.73532104 454.26715088 C-177.7382331 455.4352223 -177.7382331 455.4352223 -177.74120399 456.62689113 C-177.77222366 469.23511777 -177.78920455 481.8433262 -177.80099574 494.45158381 C-177.81340748 507.38918152 -177.84090938 520.32668372 -177.88241458 533.26422113 C-177.90754938 541.24716574 -177.92091881 549.22995195 -177.91923109 557.21293669 C-177.91919781 563.33469729 -177.94016138 569.45622237 -177.96896935 575.57791138 C-177.977496 578.08893393 -177.97919963 580.59999025 -177.9736042 583.11102104 C-177.96698478 586.53773229 -177.98483733 589.96347702 -178.00881958 593.39009094 C-178.00105916 594.38523856 -177.99329875 595.38038617 -177.98530316 596.40568978 C-178.07032525 603.26164799 -179.26497762 607.88491738 -184.27389526 612.88262939 C-184.83205933 613.25645752 -185.39022339 613.63028564 -185.96530151 614.01544189 C-186.79868042 614.59938721 -186.79868042 614.59938721 -187.64889526 615.19512939 C-192.91316056 617.84367867 -198.94170813 617.29488272 -204.68307495 617.30157471 C-205.70322693 617.30653961 -206.72337891 617.31150452 -207.77444458 617.31661987 C-211.14536212 617.33121026 -214.5162326 617.33803846 -217.88717651 617.34356689 C-220.23501588 617.34932109 -222.58285523 617.35507879 -224.93069458 617.36083984 C-229.85336526 617.37134107 -234.77601965 617.37718943 -239.69869995 617.38067627 C-245.99443763 617.38615789 -252.2899587 617.41018276 -258.58562851 617.43864822 C-263.43619407 617.45730798 -268.2867078 617.462482 -273.13730621 617.46401215 C-275.45764601 617.46703185 -277.77798505 617.47503723 -280.09828949 617.48819733 C-283.35067542 617.50532663 -286.60253672 617.50336053 -289.85494995 617.49688721 C-291.28139832 617.51070938 -291.28139832 617.51070938 -292.73666382 617.52481079 C-299.07281241 617.48547395 -306.0267424 617.02419692 -311.11867905 612.83006668 C-316.63725273 606.67423123 -316.81943236 600.06342659 -316.78227711 592.25710487 C-316.78548359 591.26150323 -316.78869006 590.26590158 -316.79199371 589.24013019 C-316.80032404 585.88934796 -316.79435874 582.53874306 -316.78849792 579.18795776 C-316.79151722 576.76722196 -316.79540558 574.34648711 -316.80009049 571.92575395 C-316.80825111 566.65498832 -316.81016308 561.38427501 -316.80658722 556.11350822 C-316.80128377 548.27565049 -316.80737191 540.43783041 -316.81567015 532.59997676 C-316.83092096 517.78774368 -316.83261411 502.97552766 -316.83014712 488.16328837 C-316.82831536 476.72613968 -316.83007162 465.28899659 -316.83437157 453.8518486 C-316.83497396 452.20940989 -316.83557516 450.56697118 -316.83617517 448.92453247 C-316.83708241 446.44961463 -316.83799108 443.97469679 -316.83890752 441.49977896 C-316.84733873 418.48527324 -316.85167158 395.47076963 -316.8475008 372.45626259 C-316.84734443 371.58842146 -316.84718805 370.72058033 -316.84702693 369.82644099 C-316.84622114 365.42775521 -316.84537537 361.02906945 -316.84451363 356.63038369 C-316.84434254 355.75677172 -316.84417146 354.88315975 -316.84399518 353.9830747 C-316.84364853 352.21641863 -316.8433 350.44976257 -316.8429496 348.68310651 C-316.83759189 321.19133323 -316.84552355 293.69959201 -316.86398315 266.20782471 C-316.88469266 235.32903647 -316.89542788 204.4502681 -316.89140767 173.57147253 C-316.89101231 170.27987059 -316.89065077 166.98826866 -316.89031029 163.69666672 C-316.89021956 162.88617577 -316.89012882 162.07568483 -316.89003534 161.24063355 C-316.88886869 148.99804651 -316.89552281 136.75547952 -316.90612221 124.51289749 C-316.91816243 110.59181924 -316.91974677 96.67078518 -316.90733204 82.74970628 C-316.90069408 74.95729804 -316.90235601 67.16499541 -316.91592055 59.37259558 C-316.92511544 53.55793626 -316.91867047 47.74336333 -316.90607276 41.928708 C-316.90341 39.5734444 -316.90584147 37.21816854 -316.91380862 34.8629169 C-316.92387163 31.66690476 -316.91552905 28.47145068 -316.90253162 25.2754612 C-316.90984097 24.35644162 -316.91715032 23.43742204 -316.92468116 22.49055338 C-316.87365608 16.45661049 -316.36836686 10.2722288 -312.11129655 5.57871345 C-308.15449226 2.14096425 -305.02268676 1.02108379 -299.89299011 0.98654175 C-298.4653257 0.97364105 -298.4653257 0.97364105 -297.00881958 0.96047974 C-295.96618958 0.95621979 -294.92355957 0.95195984 -293.84933472 0.9475708 C-292.74983994 0.93939331 -291.65034515 0.93121582 -290.51753235 0.92279053 C-286.87122137 0.89793559 -283.22494935 0.88141963 -279.57858276 0.86700439 C-277.71111924 0.85901888 -277.71111924 0.85901888 -275.80592918 0.85087204 C-270.57217529 0.8296421 -265.33842724 0.8105129 -260.10464191 0.79924965 C-252.61708708 0.78302769 -245.13005255 0.74988948 -237.64269382 0.6928488 C-231.73472912 0.64938378 -225.82687966 0.63349488 -219.91875267 0.62711716 C-217.41055792 0.62040276 -214.90237078 0.60517599 -212.39428139 0.58122635 C-208.88020031 0.54958671 -205.36742726 0.54953719 -201.85324097 0.5569458 C-200.82073212 0.54054047 -199.78822327 0.52413513 -198.72442627 0.50723267 C-192.06167251 0.5646148 -187.69367583 1.8471167 -182.52780151 6.14044189 C-179.28373662 9.69844855 -178.40508778 12.83446139 -178.38913631 17.58571911 C-178.38366187 18.5008585 -178.37818743 19.41599789 -178.37254709 20.35886878 C-178.37156898 21.36566776 -178.37059088 22.37246674 -178.36958313 23.40977478 C-178.36464515 24.47814522 -178.35970718 25.54651566 -178.35461956 26.64726096 C-178.33920116 30.24483984 -178.33087218 33.84240081 -178.32247925 37.44000244 C-178.31290414 40.01184244 -178.30289428 42.58368084 -178.29248047 45.15551758 C-178.27071237 50.70159343 -178.2525691 56.24767169 -178.23687553 61.79376793 C-178.21417995 69.81252867 -178.18603669 77.83126298 -178.15655626 85.85000131 C-178.10887653 98.85931945 -178.06561338 111.86864839 -178.02511597 124.87799072 C-177.98576298 137.51667115 -177.94433722 150.15534198 -177.90011597 162.79400635 C-177.89739169 163.57282402 -177.89466742 164.3516417 -177.8918606 165.15405991 C-177.87818115 169.06109072 -177.86446087 172.96812139 -177.85072029 176.87515199 C-177.73674953 209.29689549 -177.6299415 241.71865893 -177.52780151 274.14044189 C-176.99674805 273.24438232 -176.46569458 272.34832275 -175.91854858 271.42510986 C-173.90546102 268.02883323 -171.89138548 264.63314332 -169.87704468 261.23760986 C-169.01334048 259.78138394 -168.14988727 258.32500913 -167.28671265 256.86846924 C-161.59059503 247.25720353 -155.84565699 237.67856626 -150.02780151 228.14044189 C-143.95936764 218.18006264 -137.96841826 208.1775389 -132.02780151 198.14044189 C-125.74733294 187.52914091 -119.40487651 176.95944962 -112.98580933 166.43145752 C-107.26328215 157.0420163 -101.6284027 147.60305829 -96.02780151 138.14044189 C-89.74733294 127.52914091 -83.40487651 116.95944962 -76.98580933 106.43145752 C-71.26328091 97.04201425 -65.62853845 87.60297956 -60.02780151 78.14044189 C-53.31970236 66.80798472 -46.54828096 55.51731155 -39.6869812 44.2769165 C-36.19062558 38.54429843 -32.72173072 32.79812545 -29.30905151 27.01544189 C-28.62393073 25.85839992 -27.938711 24.70141652 -27.25338745 23.54449463 C-25.9743161 21.38104312 -24.70113325 19.21409487 -23.43502808 17.04302979 C-15.0684324 2.9170429 -15.0684324 2.9170429 -7.75219536 0.57109451 C-5.12549014 0.06255261 -2.67667918 0.00815231 0 0 Z " fill="#002748" transform="translate(428.5278015136719,184.85955810546875)"/>
<path d="M0 0 C0.85101288 -0.0049649 1.70202576 -0.00992981 2.5788269 -0.01504517 C5.38459083 -0.02961096 8.19029829 -0.036458 10.99609375 -0.04199219 C12.94995118 -0.04774642 14.9038086 -0.05350412 16.85766602 -0.05926514 C20.9497097 -0.06975796 25.04173383 -0.07561247 29.13378906 -0.07910156 C34.37619663 -0.08459526 39.61834566 -0.1086492 44.860672 -0.13707352 C48.8944169 -0.15569442 52.92809929 -0.16090512 56.96188354 -0.16243744 C58.89477966 -0.16546364 60.82767469 -0.17349107 62.76052856 -0.18662262 C65.46294926 -0.20367829 68.16473481 -0.20180455 70.8671875 -0.1953125 C71.66422089 -0.20452728 72.46125427 -0.21374207 73.28244019 -0.22323608 C77.84737339 -0.18888526 80.82908842 0.2886676 84.43359375 3.16113281 C86.91632886 6.88523548 86.98471068 9.84626556 86.43359375 14.16113281 C85.140625 17.30175781 85.140625 17.30175781 83.24609375 20.41113281 C82.89514648 20.99483643 82.54419922 21.57854004 82.18261719 22.17993164 C77.88910066 29.23291564 73.31944127 36.12240148 68.7890625 43.02441406 C65.63954375 47.82957652 62.5550808 52.67295725 59.49609375 57.53613281 C55.16169317 64.42386061 50.80681507 71.29797846 46.43359375 78.16113281 C40.07442962 88.1449074 33.74778442 98.14887197 27.43359375 108.16113281 C20.52743016 119.11207093 13.60066626 130.04940732 6.64501953 140.96899414 C2.8949845 146.85829358 -0.84188204 152.75567063 -4.56640625 158.66113281 C-8.88292201 165.50523401 -13.21919093 172.33649134 -17.56640625 179.16113281 C-23.92540118 189.14501582 -30.25221503 199.14887109 -36.56640625 209.16113281 C-43.47256984 220.11207093 -50.39933374 231.04940732 -57.35498047 241.96899414 C-61.10501557 247.85829369 -64.84186171 253.75568337 -68.56640625 259.66113281 C-74.10139998 268.43660022 -79.66859878 277.19138898 -85.2421875 285.94238281 C-86.0458374 287.2146875 -86.0458374 287.2146875 -86.86572266 288.51269531 C-88.07701548 290.39901523 -89.31690911 292.26709864 -90.57568359 294.12207031 C-91.22617676 295.09402344 -91.87666992 296.06597656 -92.546875 297.06738281 C-93.14781982 297.94716797 -93.74876465 298.82695312 -94.36791992 299.73339844 C-95.75631481 302.02130106 -95.75631481 302.02130106 -95.39672852 304.2277832 C-94.49482958 306.32779429 -93.48731761 308.23373396 -92.30078125 310.18847656 C-91.82995117 310.96916504 -91.35912109 311.74985352 -90.87402344 312.55419922 C-90.36000977 313.3938623 -89.84599609 314.23352539 -89.31640625 315.09863281 C-88.77918945 315.98470215 -88.24197266 316.87077148 -87.68847656 317.78369141 C-82.85340631 325.73983455 -77.9517999 333.65513234 -73.0390625 341.56347656 C-69.26040586 347.64812154 -65.50601486 353.74759146 -61.75390625 359.84863281 C-61.08262695 360.93998535 -60.41134766 362.03133789 -59.71972656 363.15576172 C-58.35131926 365.38064712 -56.98299281 367.60558225 -55.61474609 369.83056641 C-52.26646937 375.27480849 -48.91635866 380.71792171 -45.56640625 386.16113281 C-44.23306383 388.32779389 -42.89973051 390.49446056 -41.56640625 392.66113281 C-40.90640625 393.73363281 -40.24640625 394.80613281 -39.56640625 395.91113281 C-10.89973958 442.49446615 17.76692708 489.07779948 46.43359375 535.66113281 C47.424198 537.27084961 47.424198 537.27084961 48.43481445 538.91308594 C49.76411512 541.07321982 51.09337962 543.23337596 52.42260742 545.39355469 C55.81733971 550.91035882 59.21275789 556.42673891 62.609375 561.94238281 C65.94339018 567.3564919 69.27450397 572.77237824 72.60449219 578.18896484 C74.34920389 581.02400492 76.0980126 583.85647849 77.84765625 586.68847656 C78.85558685 588.32512259 79.86340733 589.96183644 80.87109375 591.59863281 C81.32589111 592.33210937 81.78068848 593.06558594 82.24926758 593.82128906 C85.5374747 599.17439466 87.56612231 603.77665865 86.43359375 610.16113281 C83.89905718 613.38067926 82.3206207 614.86545716 78.43359375 616.16113281 C75.63121438 616.27303215 72.85306323 616.32881669 70.05004883 616.33813477 C68.76656555 616.34799156 68.76656555 616.34799156 67.45715332 616.35804749 C64.62247631 616.37777382 61.78785232 616.38944274 58.953125 616.39941406 C57.98396338 616.40348959 57.01480175 616.40756512 56.01627159 616.41176414 C50.88479195 616.43262386 45.75333904 616.44692499 40.62182617 616.45629883 C35.33025569 616.46735209 30.03910702 616.50173988 24.74768543 616.54147053 C20.67178077 616.56766109 16.59597614 616.57599293 12.51999474 616.57958031 C10.57002609 616.58444136 8.62006177 616.5960416 6.67017555 616.6146183 C3.93448466 616.63905756 1.19987877 616.63803584 -1.53588867 616.63110352 C-2.33462906 616.64391357 -3.13336945 616.65672363 -3.95631409 616.66992188 C-9.59196263 616.61812598 -13.83664096 615.26521831 -18.56640625 612.16113281 C-20.66137695 609.94995117 -20.66137695 609.94995117 -22.1796875 607.56347656 C-22.74896973 606.68288574 -23.31825195 605.80229492 -23.90478516 604.89501953 C-24.45312012 603.99283691 -25.00145508 603.0906543 -25.56640625 602.16113281 C-26.08509277 601.31437988 -26.6037793 600.46762695 -27.13818359 599.59521484 C-28.70406524 596.98640916 -30.23258177 594.35864392 -31.75390625 591.72363281 C-35.88752408 584.64535665 -40.09525373 577.63411443 -44.50390625 570.72363281 C-48.92259477 563.79472512 -53.24283338 556.81312415 -57.50390625 549.78613281 C-61.95108237 542.45343083 -66.42024865 535.13597906 -70.94140625 527.84863281 C-75.76924408 520.06634727 -80.58075204 512.27425958 -85.37890625 504.47363281 C-86.05034668 503.38203857 -86.72178711 502.29044434 -87.41357422 501.16577148 C-88.78180957 498.94112457 -90.14997329 496.7164336 -91.51806641 494.49169922 C-94.86634313 489.04745713 -98.21645384 483.60434391 -101.56640625 478.16113281 C-102.89974867 475.99447174 -104.23308199 473.82780507 -105.56640625 471.66113281 C-106.22640625 470.58863281 -106.88640625 469.51613281 -107.56640625 468.41113281 C-130.89973958 430.49446615 -154.23307292 392.57779948 -177.56640625 354.66113281 C-178.22745361 353.58694092 -178.88850098 352.51274902 -179.56958008 351.40600586 C-180.89237037 349.25645142 -182.21512474 347.10687489 -183.5378418 344.95727539 C-186.65778677 339.88702781 -189.7780942 334.81700437 -192.89968872 329.74777222 C-194.3718265 327.35708251 -195.84375808 324.96626587 -197.31567383 322.57543945 C-198.35282632 320.89098949 -199.39027651 319.20672284 -200.42773438 317.52246094 C-201.05744141 316.49958984 -201.68714844 315.47671875 -202.3359375 314.42285156 C-203.16508667 313.07646606 -203.16508667 313.07646606 -204.01098633 311.70288086 C-204.5242749 310.864104 -205.03756348 310.02532715 -205.56640625 309.16113281 C-206.47072388 307.91553589 -206.47072388 307.91553589 -207.39331055 306.64477539 C-208.56640625 304.16113281 -208.56640625 304.16113281 -207.94042969 301.65893555 C-206.54609232 299.12420463 -205.12452722 296.64421419 -203.58203125 294.19628906 C-202.6844812 292.76579224 -202.6844812 292.76579224 -201.76879883 291.30639648 C-201.12450928 290.28908447 -200.48021973 289.27177246 -199.81640625 288.22363281 C-199.14826904 287.16184814 -198.48013184 286.10006348 -197.79174805 285.00610352 C-192.19048112 276.11571671 -186.54954271 267.25037109 -180.8984375 258.39160156 C-177.77321148 253.49057651 -174.66669458 248.57796007 -171.56640625 243.66113281 C-166.65783695 235.87809483 -161.72095289 228.11335778 -156.77734375 220.35253906 C-153.02749928 214.46346615 -149.29077396 208.56634685 -145.56640625 202.66113281 C-141.24989049 195.81703161 -136.91362157 188.98577428 -132.56640625 182.16113281 C-126.20741132 172.17724981 -119.88059747 162.17339453 -113.56640625 152.16113281 C-106.66024266 141.21019469 -99.73347876 130.2728583 -92.77783203 119.35327148 C-89.027797 113.46397205 -85.29093046 107.566595 -81.56640625 101.66113281 C-76.65774679 93.87815137 -71.72095319 86.11335825 -66.77734375 78.35253906 C-63.02749928 72.46346615 -59.29077396 66.56634685 -55.56640625 60.66113281 C-50.66511938 52.88984107 -45.73633977 45.13632552 -40.79931641 37.38769531 C-36.33632435 30.37991685 -31.89504282 23.35867183 -27.47265625 16.32519531 C-26.17615368 14.26690592 -24.87202699 12.21364504 -23.56640625 10.16113281 C-23.19733154 9.56856689 -22.82825684 8.97600098 -22.44799805 8.36547852 C-19.54924997 3.81714771 -16.64003428 1.96538895 -11.41040039 0.59698486 C-7.60565921 0.01389497 -3.83928834 0.0053847 0 0 Z " fill="#EE7202" transform="translate(610.56640625,184.8388671875)"/>
<path d="M0 0 C40.32 0 40.32 0 47.4375 4.5625 C52.4393827 12.36543701 51.30231576 23.2574793 51.25 32.125 C51.26160156 34.10306641 51.26160156 34.10306641 51.2734375 36.12109375 C51.24097979 52.26880588 51.24097979 52.26880588 47 57.4375 C45 59 45 59 43 60 C43.49371094 60.38671875 43.98742187 60.7734375 44.49609375 61.171875 C45.13675781 61.69265625 45.77742187 62.2134375 46.4375 62.75 C47.07558594 63.26046875 47.71367188 63.7709375 48.37109375 64.296875 C52.00353847 68.09482679 51.16105897 73.5806579 51.16796875 78.53515625 C51.17296135 79.78600258 51.17296135 79.78600258 51.17805481 81.06211853 C51.18311324 82.82810924 51.18546347 84.59410948 51.18530273 86.36010742 C51.18747248 89.02864942 51.20559299 91.69676639 51.22460938 94.36523438 C51.30173171 116.95176071 51.30173171 116.95176071 46.6875 123.0625 C33.8609389 132.30955568 13.46601631 128 0 128 C0 85.76 0 43.52 0 0 Z M18 16 C18 28.21 18 40.42 18 53 C21.96 53 25.92 53 30 53 C33.29308348 48.60922203 33.3765772 47.61149343 33.36328125 42.37109375 C33.36263672 41.08912109 33.36199219 39.80714844 33.36132812 38.48632812 C33.35302979 37.82189697 33.34473145 37.15746582 33.33618164 36.47290039 C33.31253509 34.44051611 33.31563234 32.40944056 33.32226562 30.37695312 C33.59838732 23.29636698 33.59838732 23.29636698 31 17 C26.60247683 15.57727192 22.77948013 16 18 16 Z M18 68 C18 82.19 18 96.38 18 111 C21.96 111 25.92 111 30 111 C33.27805267 107.72194733 33.35119503 106.84135822 33.39118958 102.42640686 C33.38197983 101.68885666 33.37277008 100.95130646 33.36328125 100.19140625 C33.36402901 99.0467112 33.36402901 99.0467112 33.36479187 97.87889099 C33.3624528 96.26583247 33.35273404 94.65277021 33.33618164 93.03979492 C33.31261973 90.57502456 33.31561783 88.11133852 33.32226562 85.64648438 C33.31668753 84.07811857 33.30957682 82.50975731 33.30078125 80.94140625 C33.30169266 80.20588028 33.30260406 79.47035431 33.30354309 78.71253967 C33.25260131 75.02102312 33.17156104 72.07450101 31 69 C27.73289481 67.18010841 27.73289481 67.18010841 18 68 Z " fill="#002748" transform="translate(730,849)"/>
<path d="M0 0 C40.72727273 0 40.72727273 0 47.9375 5.0625 C52.39850189 11.41604814 52.29709546 19.76656222 52.25878906 27.31420898 C52.2622937 28.18557495 52.26579834 29.05694092 52.26940918 29.95471191 C52.278128 32.80192306 52.27241193 35.64888059 52.265625 38.49609375 C52.2669746 40.49569241 52.26891759 42.49529076 52.27142334 44.49488831 C52.27436138 48.67313785 52.27012002 52.85130151 52.26074219 57.02954102 C52.24935594 62.3597292 52.25591037 67.68971573 52.26788712 73.01989651 C52.27514778 77.14567049 52.27279842 81.27139745 52.26763153 85.39717293 C52.26630626 87.36137987 52.26790296 89.32559122 52.27259064 91.28979301 C52.32111722 117.3362242 52.32111722 117.3362242 47.8125 123.5625 C36.30224345 133.53805568 8.59800095 128 0 128 C0 85.76 0 43.52 0 0 Z M18 17 C18 48.02 18 79.04 18 111 C22.29 111 26.58 111 31 111 C34.41004006 107.58995994 34.1170726 104.13101286 34.14663696 99.42860413 C34.14595718 98.32820045 34.14595718 98.32820045 34.14526367 97.20556641 C34.14862228 96.42458084 34.1519809 95.64359528 34.15544128 94.83894348 C34.16493209 92.25980026 34.16689347 89.68072209 34.16796875 87.1015625 C34.17118266 85.30561293 34.17454684 83.50966362 34.17805481 81.7137146 C34.18404142 77.94943637 34.18589519 74.18518109 34.18530273 70.42089844 C34.18520115 65.60347325 34.19885204 60.78619556 34.21607494 55.96880531 C34.22720745 52.25928068 34.22922156 48.54979155 34.22869301 44.84025192 C34.22987128 43.06449246 34.23428451 41.28873203 34.24202538 39.51298904 C34.25185037 37.02629593 34.24893735 34.53992118 34.24291992 32.05322266 C34.25134918 30.95889168 34.25134918 30.95889168 34.25994873 29.842453 C34.22972304 22.89783245 34.22972304 22.89783245 31 17 C26.71 17 22.42 17 18 17 Z " fill="#002748" transform="translate(285,849)"/>
<path d="M0 0 C39.32 0 39.32 0 45.875 3.5625 C52.43510533 11.0873267 51.43305824 21.31682567 51.33618164 30.67529297 C51.31248734 33.12630928 51.31564897 35.57624102 51.32226562 38.02734375 C51.31669036 39.60417307 51.30958143 41.18099788 51.30078125 42.7578125 C51.30214836 43.84245285 51.30214836 43.84245285 51.30354309 44.94900513 C51.22539443 50.61558777 50.7248758 55.88563612 47.0625 60.375 C45 62 45 62 42 63 C42.48210938 63.3403125 42.96421875 63.680625 43.4609375 64.03125 C44.09257813 64.5159375 44.72421875 65.000625 45.375 65.5 C46.31472656 66.19609375 46.31472656 66.19609375 47.2734375 66.90625 C51.56894078 72.1152766 51.30115409 79.6938921 51.34375 86.14453125 C51.3583728 86.99496506 51.37299561 87.84539886 51.38806152 88.72160339 C51.43417088 91.41852186 51.46856777 94.11537313 51.5 96.8125 C51.62620799 112.51196507 51.62620799 112.51196507 54 128 C48.06 128 42.12 128 36 128 C32.83918754 116.93715638 32.73053414 106.25127075 32.52319336 94.8359375 C33.06385745 82.00022028 33.06385745 82.00022028 28 71 C24.7 70.67 21.4 70.34 18 70 C18 89.14 18 108.28 18 128 C12.06 128 6.12 128 0 128 C0 85.76 0 43.52 0 0 Z M18 16 C18 28.87 18 41.74 18 55 C25.10905816 55.29662193 25.10905816 55.29662193 31 53 C34.93118584 47.10322124 34.15544102 39.74452432 34.125 32.875 C34.12886719 31.99457031 34.13273438 31.11414063 34.13671875 30.20703125 C34.13039223 26.01254718 34.06862423 22.08791174 33 18 C32.01 17.67 31.02 17.34 30 17 C29.443125 16.814375 28.88625 16.62875 28.3125 16.4375 C24.93187663 15.79792261 21.44059204 16 18 16 Z " fill="#002748" transform="translate(862,849)"/>
<path d="M0 0 C40.45945946 0 40.45945946 0 45.9375 4.3125 C52.24659403 12.53344071 51.18233191 22.93628496 51.1875 32.8125 C51.19974609 34.03259766 51.21199219 35.25269531 51.22460938 36.50976562 C51.2531909 54.23984114 51.2531909 54.23984114 46.5 60.0625 C44 62 44 62 42 63 C42.763125 63.515625 43.52625 64.03125 44.3125 64.5625 C48.43571673 68.30216169 49.79517326 72.22091284 50.41650391 77.61767578 C50.44623291 79.51235596 50.44623291 79.51235596 50.4765625 81.4453125 C50.49214203 82.13704559 50.50772156 82.82877869 50.52377319 83.54147339 C50.5708495 85.73597015 50.59883639 87.9301637 50.625 90.125 C50.6739935 93.00272374 50.73012927 95.88027618 50.7890625 98.7578125 C50.81048309 99.81044281 50.81048309 99.81044281 50.83233643 100.88433838 C51.04513086 110.25248347 51.71562689 118.86250757 54 128 C47.73 128 41.46 128 35 128 C32.2450124 114.225062 31.78489332 100.50695977 31.5703125 86.49023438 C31.69222967 78.07816179 31.69222967 78.07816179 28 71 C24.37 70.67 20.74 70.34 17 70 C17 89.14 17 108.28 17 128 C11.39 128 5.78 128 0 128 C0 85.76 0 43.52 0 0 Z M18 16 C18 28.87 18 41.74 18 55 C25.0925362 55.37128216 25.0925362 55.37128216 31 53 C32.9950213 49.11206479 33.25695911 45.82451473 33.265625 41.4921875 C33.26820313 40.25855469 33.27078125 39.02492188 33.2734375 37.75390625 C33.26570313 36.47386719 33.25796875 35.19382812 33.25 33.875 C33.25773437 32.58722656 33.26546875 31.29945313 33.2734375 29.97265625 C33.27085937 28.74160156 33.26828125 27.51054688 33.265625 26.2421875 C33.26224121 24.55391846 33.26224121 24.55391846 33.25878906 22.83154297 C33.20817364 19.79586988 33.20817364 19.79586988 31 17 C26.60247683 15.57727192 22.77948013 16 18 16 Z " fill="#002748" transform="translate(169,849)"/>
<path d="M0 0 C5.54719791 4.87596163 8.3660575 10.89822155 9.27479172 18.21144104 C9.38557486 20.49586109 9.40585945 22.76182731 9.38818359 25.04882812 C9.39344055 25.90375351 9.39869751 26.75867889 9.40411377 27.63951111 C9.41720785 30.4369489 9.40861354 33.23380744 9.3984375 36.03125 C9.40046128 37.99222929 9.40337525 39.95320784 9.40713501 41.91418457 C9.41154403 46.01268723 9.40517323 50.11099299 9.39111328 54.20947266 C9.37402234 59.44469123 9.38387116 64.67944829 9.40183067 69.91464996 C9.41270701 73.96058587 9.40920454 78.00641361 9.4014473 82.05235291 C9.39945592 83.98192907 9.40186693 85.91151528 9.40888596 87.84107971 C9.41656408 90.5447058 9.40480793 93.24759985 9.38818359 95.95117188 C9.39729263 97.12975014 9.39729263 97.12975014 9.40658569 98.33213806 C9.32696357 105.37457297 7.70862632 111.41265157 3.8125 117.3125 C-3.77088234 124.55884312 -12.26415877 125.37976012 -22.41796875 125.2734375 C-29.18921493 124.75654848 -34.70375054 122.78930261 -39.4375 117.8125 C-44.22981907 111.25595129 -45.45132337 104.10923082 -45.38818359 96.15063477 C-45.39344055 95.31682281 -45.39869751 94.48301086 -45.40411377 93.62393188 C-45.41720472 90.89622681 -45.40861391 88.16911618 -45.3984375 85.44140625 C-45.40046156 83.52766306 -45.40337576 81.61392062 -45.40713501 79.70018005 C-45.41154377 75.70002865 -45.4051748 71.70007901 -45.39111328 67.69995117 C-45.37403397 62.59486327 -45.38386394 57.49024907 -45.40183067 52.38517857 C-45.41271765 48.43613678 -45.40919951 44.48720561 -45.4014473 40.53816032 C-45.39945825 38.65685913 -45.4018586 36.77554762 -45.40888596 34.8942585 C-45.47976325 10.58764833 -45.47976325 10.58764833 -36.9609375 1.69140625 C-27.1976621 -6.729905 -10.46941455 -7.8640123 0 0 Z M-26 15 C-27.59520417 18.19040835 -27.14724857 21.6458293 -27.14526367 25.14990234 C-27.14862228 25.99232986 -27.1519809 26.83475739 -27.15544128 27.70271301 C-27.16496681 30.49713604 -27.16689525 33.29149924 -27.16796875 36.0859375 C-27.17118041 38.02405828 -27.17454441 39.96217881 -27.17805481 41.90029907 C-27.18405022 45.9673926 -27.18589431 50.03446486 -27.18530273 54.1015625 C-27.18520113 59.31607269 -27.19884948 64.53044665 -27.21607494 69.74492455 C-27.22718785 73.74946724 -27.22922215 77.75397694 -27.22869301 81.75853348 C-27.22987435 83.68108209 -27.2343047 85.60363153 -27.24202538 87.52616501 C-27.25181014 90.21464348 -27.24895311 92.90282546 -27.24291992 95.59130859 C-27.24853943 96.38729965 -27.25415894 97.18329071 -27.25994873 98.00340271 C-27.26250003 103.3315317 -27.26250003 103.3315317 -25 108 C-21.30405926 110.46396049 -18.28892393 110.66716594 -14 110 C-10.5692187 107.92347448 -10.05849543 106.19640197 -8.91503906 102.35717773 C-7.42868111 95.23639707 -7.71242664 87.96138873 -7.734375 80.72265625 C-7.73302482 79.14521729 -7.73108136 77.56777874 -7.72857666 75.99034119 C-7.72564112 72.69640105 -7.72987162 69.40256996 -7.73925781 66.10864258 C-7.75064199 61.91164224 -7.74408946 57.71489807 -7.73211288 53.51790714 C-7.72484363 50.26372897 -7.72720548 47.0096103 -7.73236847 43.75543022 C-7.73369149 42.20905972 -7.73210517 40.6626836 -7.72740936 39.11631966 C-7.22620989 25.18610491 -7.22620989 25.18610491 -11.6875 12.375 C-17.25788397 9.0628798 -21.67039677 10.67039677 -26 15 Z " fill="#002748" transform="translate(971,853)"/>
<path d="M0 0 C5.61 0 11.22 0 17 0 C17.01213028 1.86469437 17.01213028 1.86469437 17.02450562 3.76705933 C17.10213796 15.50751774 17.18992001 27.2478627 17.28752708 38.98817253 C17.33737935 45.02334184 17.38371021 51.05849457 17.421875 57.09375 C17.4588678 62.92286994 17.50526534 68.75184743 17.55806351 74.58084488 C17.57653326 76.79984146 17.59166831 79.01886849 17.60334396 81.23791122 C17.62033384 84.3565084 17.64939887 87.47478456 17.68115234 90.59326172 C17.68331253 91.50173355 17.68547272 92.41020538 17.68769836 93.34620667 C17.7634615 99.20703351 17.86761608 105.48026926 20 111 C22.25024306 113.07472975 23.27239891 113.97711189 26.359375 114.07421875 C27.14828125 113.94660156 27.9371875 113.81898438 28.75 113.6875 C29.54921875 113.56761719 30.3484375 113.44773437 31.171875 113.32421875 C32.07679687 113.16373047 32.07679687 113.16373047 33 113 C36.08589214 107.04562481 36.44224515 102.12013141 36.43237305 95.47485352 C36.4425647 94.43995285 36.45275635 93.40505219 36.46325684 92.33879089 C36.49332823 88.93544052 36.50264406 85.5323719 36.51171875 82.12890625 C36.52856973 79.76235523 36.54672053 77.39581314 36.56611633 75.02928162 C36.61357667 68.81347442 36.6434119 62.59770343 36.66955566 56.3817749 C36.69938103 50.03374076 36.74590464 43.68583129 36.79101562 37.33789062 C36.87700376 24.89199236 36.94436919 12.4460684 37 0 C42.94 0 48.88 0 55 0 C55.04532177 12.81385874 55.08195691 25.62766358 55.10362434 38.44158459 C55.11402759 44.39264612 55.1281232 50.3436496 55.15087891 56.29467773 C55.17273115 62.04592262 55.18459459 67.79711193 55.18975449 73.54839516 C55.19342812 75.73424465 55.20060134 77.92009137 55.21146011 80.10591698 C55.37554251 114.52783466 55.37554251 114.52783466 46.2109375 123.8125 C39.78474484 129.13779113 32.52769448 130.49956185 24.3203125 130.2421875 C15.91060078 129.36440614 9.54815274 126.48173614 4 120 C0.87530836 114.90067683 -0.12713111 109.20562124 -0.12025452 103.29862976 C-0.12162918 102.3830278 -0.12300385 101.46742584 -0.12442017 100.52407837 C-0.12082489 99.53217499 -0.11722961 98.54027161 -0.11352539 97.51831055 C-0.11367142 96.46419479 -0.11381744 95.41007904 -0.1139679 94.32402039 C-0.11327205 90.8448988 -0.10549493 87.36583097 -0.09765625 83.88671875 C-0.09579091 81.47247853 -0.09436755 79.05823793 -0.09336853 76.64399719 C-0.08955251 70.29331414 -0.07973001 63.94265399 -0.06866455 57.59197998 C-0.05843078 51.11015126 -0.05386669 44.62831884 -0.04882812 38.14648438 C-0.03810694 25.43097952 -0.02104147 12.71549167 0 0 Z " fill="#002748" transform="translate(1054,849)"/>
<path d="M0 0 C5.61 0 11.22 0 17 0 C17.00808685 1.25787827 17.01617371 2.51575653 17.02450562 3.81175232 C17.1021 15.68496701 17.18987277 27.55806899 17.28752708 39.43113613 C17.33740331 45.53471556 17.38373412 51.63827842 17.421875 57.74194336 C17.45883732 63.63589674 17.50522697 69.52970841 17.55806351 75.42354012 C17.57654934 77.66848316 17.59167858 79.91345651 17.60334396 82.15844536 C17.62030599 85.31077357 17.64936496 88.46278133 17.68115234 91.61499023 C17.68331253 92.53640808 17.68547272 93.45782593 17.68769836 94.40716553 C17.67844619 104.36705511 17.67844619 104.36705511 21.75 113.0625 C25.40544054 114.58560022 28.45425972 114.38643507 32.25 113.4375 C34.94768746 111.22154244 35.377555 108.30654207 36 105 C36.29063085 101.52131936 36.31096813 98.05617711 36.31884766 94.56665039 C36.33391609 93.02892975 36.33391609 93.02892975 36.34928894 91.46014404 C36.38005076 88.08932021 36.39713677 84.71857555 36.4140625 81.34765625 C36.43277976 79.00352806 36.45235359 76.65940656 36.4727478 74.31529236 C36.52401593 68.15868076 36.56367025 62.00204733 36.60089111 55.84533691 C36.64096402 49.55764387 36.6920414 43.27004122 36.7421875 36.98242188 C36.83888387 24.65501147 36.92330887 12.32754996 37 0 C42.94 0 48.88 0 55 0 C55.04534634 12.53582036 55.08197091 25.07158544 55.10362434 37.60746956 C55.11402158 43.42958775 55.12810594 49.25164648 55.15087891 55.07373047 C55.17275292 60.70178683 55.18459909 66.32978631 55.18975449 71.95788193 C55.19342427 74.09545663 55.20058974 76.23302855 55.21146011 78.37057877 C55.38422477 113.7801919 55.38422477 113.7801919 46.515625 123.65234375 C40.20936345 129.25971549 32.59815679 130.35811718 24.42578125 130.20703125 C15.98275983 129.48645132 9.54138089 126.47382479 4 120 C0.87530836 114.90067683 -0.12713111 109.20562124 -0.12025452 103.29862976 C-0.12162918 102.3830278 -0.12300385 101.46742584 -0.12442017 100.52407837 C-0.12082489 99.53217499 -0.11722961 98.54027161 -0.11352539 97.51831055 C-0.11367142 96.46419479 -0.11381744 95.41007904 -0.1139679 94.32402039 C-0.11327205 90.8448988 -0.10549493 87.36583097 -0.09765625 83.88671875 C-0.09579091 81.47247853 -0.09436755 79.05823793 -0.09336853 76.64399719 C-0.08955251 70.29331414 -0.07973001 63.94265399 -0.06866455 57.59197998 C-0.05843078 51.11015126 -0.05386669 44.62831884 -0.04882812 38.14648438 C-0.03810694 25.43097952 -0.02104147 12.71549167 0 0 Z " fill="#002748" transform="translate(794,849)"/>
<path d="M0 0 C5.94 0 11.88 0 18 0 C18.33 16.5 18.66 33 19 50 C20.07121094 46.55820312 21.14242188 43.11640625 22.24609375 39.5703125 C23.28157217 36.24743051 24.3176371 32.92473194 25.35375977 29.60205078 C26.07507752 27.28778914 26.7957827 24.97333647 27.51586914 22.65869141 C28.5493434 19.33706389 29.58499864 16.0161233 30.62109375 12.6953125 C30.94403915 11.65569366 31.26698456 10.61607483 31.59971619 9.54495239 C31.89995193 8.58410736 32.20018768 7.62326233 32.50952148 6.63330078 C32.77377426 5.78502716 33.03802704 4.93675354 33.31028748 4.06277466 C34 2 34 2 35 0 C40.94 0 46.88 0 53 0 C51.59606971 7.31116755 49.24231817 13.92039504 46.55078125 20.84765625 C45.24562245 24.37225 43.95442131 27.90175937 42.66430664 31.43188477 C41.76943349 33.83529069 40.84879204 36.22927237 39.90161133 38.61254883 C34.77570005 51.58422432 31.00744959 62.06506088 36.4765625 75.4765625 C37.79424107 78.42698109 39.17827348 81.32431614 40.63137817 84.21035767 C42.75943163 88.54793866 44.43697163 93.04107412 46.16015625 97.55078125 C46.81124947 99.19202974 47.46550091 100.83202918 48.12304688 102.47070312 C48.44136475 103.26613525 48.75968262 104.06156738 49.08764648 104.88110352 C49.75276733 106.5399912 50.41882317 108.19850423 51.08569336 109.85668945 C52.07330903 112.31546309 53.05465709 114.77666285 54.03515625 117.23828125 C54.33502945 117.9787117 54.63490265 118.71914215 54.94386292 119.48200989 C56.13103376 122.4715666 57 124.75208447 57 128 C51.06 128 45.12 128 39 128 C34.47272308 117.3455153 30.32564044 106.56024212 26.1875 95.75 C23.815625 89.5625 21.44375 83.375 19 77 C18.67 93.83 18.34 110.66 18 128 C12.06 128 6.12 128 0 128 C0 85.76 0 43.52 0 0 Z " fill="#002748" transform="translate(417,849)"/>
<path d="M0 0 C5.94 0 11.88 0 18 0 C18.33 16.5 18.66 33 19 50 C24.28 33.5 29.56 17 35 0 C40.94 0 46.88 0 53 0 C51.61282578 7.28939051 49.23897304 13.79924513 46.48046875 20.671875 C34.58451669 47.41945507 34.58451669 47.41945507 35.015625 75.47998047 C37.1036115 79.97824684 39.43206323 84.2412292 42.01464844 88.47412109 C45.59353443 94.5468449 47.84667069 101.29303587 50.32662964 107.86727905 C51.17134863 110.08264137 52.04445546 112.28428846 52.92993164 114.48364258 C53.20235687 115.16363815 53.4747821 115.84363373 53.75546265 116.54423523 C54.49696246 118.39309986 55.239062 120.24172394 55.98120117 122.09033203 C57 125 57 125 57 128 C51.06 128 45.12 128 39 128 C32.00463486 110.78063965 25.49378243 93.41514379 19 76 C18.67 93.16 18.34 110.32 18 128 C12.06 128 6.12 128 0 128 C0 85.76 0 43.52 0 0 Z " fill="#002748" transform="translate(104,849)"/>
<path d="M0 0 C7.26 0 14.52 0 22 0 C24.4836199 15.65454963 26.96151671 31.30999076 29.43187714 46.96663761 C30.57910505 54.23660626 31.72833648 61.50624751 32.88232422 68.77514648 C33.88837954 75.11226121 34.89063553 81.44996325 35.88837385 87.78839296 C36.41657667 91.14310215 36.94665 94.49749109 37.48127747 97.85118294 C38.07780573 101.59931949 38.6676132 105.34845639 39.25585938 109.09790039 C39.43352341 110.20417282 39.61118744 111.31044525 39.79423523 112.45024109 C40.03403862 113.99184402 40.03403862 113.99184402 40.27868652 115.56459045 C40.41879906 116.45043351 40.55891159 117.33627657 40.70326996 118.24896336 C41.05199566 121.4820609 41 124.74814985 41 128 C35.39 128 29.78 128 24 128 C23.505 125.339375 23.01 122.67875 22.5 119.9375 C22.34337891 119.1137085 22.18675781 118.28991699 22.02539062 117.44116211 C21.90357422 116.76835205 21.78175781 116.09554199 21.65625 115.40234375 C21.53056641 114.72679443 21.40488281 114.05124512 21.27539062 113.35522461 C20.91307327 110.25657611 21 107.11975903 21 104 C14.73 104 8.46 104 2 104 C1.7130034 108.90510465 1.7130034 108.90510465 1.43188477 113.81054688 C1.39377686 114.44025391 1.35566895 115.06996094 1.31640625 115.71875 C1.27974854 116.34716797 1.24309082 116.97558594 1.20532227 117.62304688 C0.9056408 121.09236761 0.43191871 124.5446503 0 128 C-5.94 128 -11.88 128 -18 128 C-16.04792694 112.03510317 -13.94096398 96.09966439 -11.6796875 80.17578125 C-11.3723601 78.00247466 -11.06516275 75.82914968 -10.75808716 73.6558075 C-10.12233799 69.15928004 -9.485273 64.66294176 -8.84716797 60.16674805 C-8.03003569 54.40854794 -7.21596986 48.64991915 -6.40281487 42.8911562 C-5.77250225 38.42924314 -5.14078101 33.96753043 -4.50860977 29.50588036 C-4.20759851 27.38047036 -3.90698335 25.25500423 -3.60677719 23.12948036 C-3.18961772 20.17767125 -2.77060335 17.22613133 -2.35107422 14.2746582 C-2.22847229 13.40461655 -2.10587036 12.53457489 -1.97955322 11.63816833 C-1.86471588 10.8329776 -1.74987854 10.02778687 -1.63156128 9.19819641 C-1.53313871 8.50391698 -1.43471615 7.80963755 -1.33331108 7.09431934 C-0.95512772 4.71805052 -0.47188966 2.3594483 0 0 Z M10 28 C9.9575415 29.11995361 9.91508301 30.23990723 9.87133789 31.39379883 C9.33719163 43.91844136 8.03067327 56.25808768 6.4375 68.6875 C6.20055279 70.57609431 5.96422192 72.46476604 5.72851562 74.35351562 C5.15940546 78.90326282 4.58210322 83.45189769 4 88 C8.62 88 13.24 88 18 88 C17.27132481 77.74058454 15.92431003 67.6173659 14.5 57.4375 C11.69635887 37.3553735 11.69635887 37.3553735 11 28 C10.67 28 10.34 28 10 28 Z " fill="#002748" transform="translate(493,849)"/>
<path d="M0 0 C4.9833044 3.85073522 6.71758416 7.99875149 8 14 C8.3459004 18.86241179 8.28467951 23.6910656 8.1875 28.5625 C8.16719727 30.50479492 8.16719727 30.50479492 8.14648438 32.48632812 C8.11137656 35.65773365 8.0575784 38.82892285 8 42 C2.39 42 -3.22 42 -9 42 C-9.03738281 40.00195312 -9.07476563 38.00390625 -9.11328125 35.9453125 C-9.16194905 34.01250569 -9.21071966 32.0796999 -9.26245117 30.14697266 C-9.31209959 28.14117664 -9.34654164 26.13502313 -9.38085938 24.12890625 C-9.41630859 22.87207031 -9.45175781 21.61523438 -9.48828125 20.3203125 C-9.51446533 19.15773926 -9.54064941 17.99516602 -9.56762695 16.79736328 C-9.78165161 15.41266846 -9.78165161 15.41266846 -10 14 C-12.81509993 11.7226499 -12.81509993 11.7226499 -16 12 C-19.17787812 12.74306494 -19.17787812 12.74306494 -20.875 15.5 C-23.74131729 24.41743155 -21.42404938 32.48924816 -18 41 C-15.26390374 46.14583081 -11.87672778 50.90362032 -8.5625 55.6875 C-6.86791521 58.16494248 -5.18248205 60.64840358 -3.50390625 63.13671875 C-3.10327469 63.73050827 -2.70264313 64.32429779 -2.28987122 64.93608093 C6.92579275 78.7660204 11.29069273 93.14607529 8.3125 109.8125 C6.37560357 117.19437802 2.20918849 122.6915835 -4 127 C-11.77168204 130.11745438 -21.13512389 130.54873282 -29 127.4375 C-34.2583741 124.61283436 -37.86987679 121.15861976 -39.90600586 115.46777344 C-41.95544039 107.61864699 -42.36588441 100.33676011 -42.1875 92.25 C-42.17396484 91.0640625 -42.16042969 89.878125 -42.14648438 88.65625 C-42.1115777 85.77063134 -42.05779064 82.88525108 -42 80 C-36.39 80 -30.78 80 -25 80 C-24.96261719 81.96324219 -24.92523437 83.92648437 -24.88671875 85.94921875 C-24.82106012 88.52866497 -24.75461275 91.1080912 -24.6875 93.6875 C-24.66494141 94.98107422 -24.64238281 96.27464844 -24.61914062 97.60742188 C-24.5659668 99.47817383 -24.5659668 99.47817383 -24.51171875 101.38671875 C-24.48553467 102.53358154 -24.45935059 103.68044434 -24.43237305 104.86206055 C-23.95609696 108.31862548 -23.11493752 110.2429218 -21 113 C-18.10293293 114.24677006 -18.10293293 114.24677006 -15 114 C-12.37674446 112.15663124 -11.26321841 110.78965523 -10.25 107.75 C-8.70560515 90.76165668 -15.27687832 78.65110184 -24.81225586 65.0793457 C-34.85630566 50.72065884 -43.08867048 36.28906793 -40.609375 18.140625 C-38.92789932 9.6470171 -35.43617549 3.73587391 -28.2265625 -1.21875 C-20.10383504 -5.04955596 -7.58491959 -4.78179714 0 0 Z " fill="#002748" transform="translate(1034,850)"/>
<path d="M0 0 C14.19 0 28.38 0 43 0 C43 5.61 43 11.22 43 17 C34.75 17 26.5 17 18 17 C18 28.88 18 40.76 18 53 C25.26 53 32.52 53 40 53 C40 58.61 40 64.22 40 70 C32.74 70 25.48 70 18 70 C18 83.53 18 97.06 18 111 C26.25 111 34.5 111 43 111 C43 116.61 43 122.22 43 128 C28.81 128 14.62 128 0 128 C0 85.76 0 43.52 0 0 Z " fill="#002748" transform="translate(233,849)"/>
<path d="M0 0 C5.94 0 11.88 0 18 0 C21.09463828 10.36703823 24.09495651 20.71745177 26.3125 31.3125 C26.47137695 32.06893799 26.63025391 32.82537598 26.79394531 33.60473633 C27.76141847 38.38628636 28.44685363 43.15312335 29 48 C29.11480713 47.4644751 29.22961426 46.9289502 29.34790039 46.37719727 C31.83244304 34.88907019 34.58288911 23.50797528 37.75 12.1875 C38.05558838 11.09058838 38.36117676 9.99367676 38.67602539 8.86352539 C40.86909727 1.13090273 40.86909727 1.13090273 42 0 C43.34267413 -0.08631874 44.68974322 -0.10706473 46.03515625 -0.09765625 C46.84404297 -0.09443359 47.65292969 -0.09121094 48.48632812 -0.08789062 C49.33646484 -0.07951172 50.18660156 -0.07113281 51.0625 -0.0625 C51.91650391 -0.05798828 52.77050781 -0.05347656 53.65039062 -0.04882812 C55.76695663 -0.03700373 57.88348685 -0.01906769 60 0 C57.86517705 9.46600911 55.18956019 18.6332271 52.14453125 27.84375 C40.96346436 62.34252855 37.61931487 91.78612617 39 128 C32.4 128 25.8 128 19 128 C19.13664063 124.74640625 19.27328125 121.4928125 19.4140625 118.140625 C20.42073851 80.98509885 13.46599074 48.72733878 2.71858215 13.39025879 C2.18293892 11.6168512 2.18293892 11.6168512 1.63647461 9.80761719 C1.16134682 8.26228302 1.16134682 8.26228302 0.67662048 6.68572998 C0 4 0 4 0 0 Z " fill="#002748" transform="translate(535,849)"/>
<path d="M0 0 C18.81 0 37.62 0 57 0 C57 5.28 57 10.56 57 16 C50.4 16 43.8 16 37 16 C37 52.96 37 89.92 37 128 C31.06 128 25.12 128 19 128 C19 91.04 19 54.08 19 16 C12.73 16 6.46 16 0 16 C0 10.72 0 5.44 0 0 Z " fill="#002748" transform="translate(627,849)"/>
<path d="M0 0 C5.94 0 11.88 0 18 0 C18 42.24 18 84.48 18 128 C12.06 128 6.12 128 0 128 C0 85.76 0 43.52 0 0 Z " fill="#002748" transform="translate(601,849)"/>
<path d="M0 0 C5.61 0 11.22 0 17 0 C17 42.24 17 84.48 17 128 C11.39 128 5.78 128 0 128 C0 85.76 0 43.52 0 0 Z " fill="#002748" transform="translate(349,849)"/>
<path d="M0 0 C5.61 0 11.22 0 17 0 C17 6.27 17 12.54 17 19 C11.39 19 5.78 19 0 19 C0 12.73 0 6.46 0 0 Z " fill="#002748" transform="translate(349,819)"/>
<path d="M0 0 C4.62 0 9.24 0 14 0 C14 6.27 14 12.54 14 19 C9.38 19 4.76 19 0 19 C0 12.73 0 6.46 0 0 Z " fill="#002748" transform="translate(826,819)"/>
<path d="M0 0 C4.62 0 9.24 0 14 0 C14 6.27 14 12.54 14 19 C9.38 19 4.76 19 0 19 C0 12.73 0 6.46 0 0 Z " fill="#002748" transform="translate(802,819)"/>
</svg>
