<svg xmlns="http://www.w3.org/2000/svg" width="382" height="154" viewBox="86 200 382 154" version="1.1"><path d="M 272.250 209.584 C 269.729 210.687, 268.995 211.622, 268.978 213.753 C 268.944 218.068, 265.897 223.783, 255.419 239.189 C 244.460 255.303, 241.120 259.222, 235.784 262.233 C 232.644 264.005, 232.306 264.503, 233.601 265.450 C 236.077 267.260, 231.864 270.370, 226.762 270.498 C 223.245 270.586, 222.520 270.973, 221.978 273.051 C 220.261 279.639, 225.637 285.964, 233 286.018 C 238.607 286.059, 251.795 292.904, 250.453 295.076 C 250.139 295.584, 250.635 296, 251.555 296 C 252.475 296, 255.923 298.335, 259.217 301.188 C 264.832 306.052, 265.090 306.465, 263.353 307.792 C 261.622 309.113, 261.656 309.160, 263.866 308.499 C 265.844 307.908, 267.206 308.750, 272.185 313.646 C 280.509 321.830, 284.965 328.181, 286.520 334.074 C 288.285 340.765, 290.101 343.346, 294.522 345.444 C 300.637 348.345, 308.510 345.782, 311.551 339.901 C 312.503 338.060, 313 333.997, 313 328.054 C 313 316.286, 314.848 311.031, 325.395 292.803 C 337.556 271.785, 340.022 268, 341.554 268 C 342.373 268, 342.702 267.388, 342.362 266.500 C 341.876 265.234, 343.401 264.968, 352.143 264.792 L 362.500 264.585 353.250 264.255 C 348.163 264.073, 344 263.695, 344 263.415 C 344 262.288, 349.774 257.801, 354.227 255.467 C 361.367 251.725, 363.473 246.462, 360.591 239.564 C 358.738 235.128, 355.885 234.290, 351.617 236.928 C 349.773 238.068, 347.305 239, 346.132 239 C 344.959 239, 344 239.436, 344 239.969 C 344 240.501, 343.333 240.681, 342.518 240.369 C 341.418 239.946, 341.289 239.328, 342.018 237.966 C 343.447 235.297, 343.507 235.339, 337.250 234.676 C 330.375 233.949, 322.089 231.164, 304.050 223.520 C 290.318 217.701, 282.865 213.359, 280.722 209.926 C 279.325 207.690, 276.814 207.589, 272.250 209.584 M 271.095 222.819 C 269.118 224.919, 263.060 233.243, 257.634 241.318 C 240.851 266.291, 239.394 273.444, 248.706 285.144 C 251.489 288.640, 254.268 291.387, 254.883 291.250 C 255.497 291.112, 256 291.606, 256 292.346 C 256 293.940, 274.328 311.117, 281.500 316.246 C 284.250 318.212, 288.214 320.141, 290.309 320.533 L 294.119 321.245 291.836 323.675 C 289.901 325.734, 289.777 326.250, 291.026 327.051 C 292.630 328.080, 297.785 327.344, 299.686 325.815 C 300.338 325.290, 302.138 324.506, 303.686 324.072 L 306.500 323.284 303.430 321.477 L 300.360 319.670 304.215 316.187 C 308.154 312.628, 316.362 300.854, 321.772 291 C 323.433 287.975, 326.909 281.923, 329.497 277.551 C 342.537 255.518, 342.928 247.862, 331.415 239.942 C 321.199 232.913, 286.648 219, 279.410 219 C 275.235 219, 274.275 219.441, 271.095 222.819 M 408.750 263.737 C 411.637 263.939, 416.363 263.939, 419.250 263.737 C 422.137 263.535, 419.775 263.370, 414 263.370 C 408.225 263.370, 405.863 263.535, 408.750 263.737 M 93.116 266.250 C 93.200 267.887, 93.355 268.033, 93.683 266.785 C 94.061 265.345, 95.681 265.019, 103.817 264.745 L 113.500 264.419 103.250 264.209 C 93.194 264.004, 93.002 264.043, 93.116 266.250 M 153 264.678 C 166.230 265.399, 181.776 265.438, 181.348 264.750 C 181.092 264.337, 173.371 264.085, 164.191 264.189 C 155.011 264.293, 149.975 264.513, 153 264.678 M 198.469 264.729 L 207.942 265.072 208.265 277.786 L 208.587 290.500 208.544 277.500 L 208.500 264.500 198.748 264.443 L 188.995 264.385 198.469 264.729 M 261.784 264.738 C 264.689 264.941, 269.189 264.939, 271.784 264.734 C 274.378 264.528, 272 264.363, 266.500 264.365 C 261 264.368, 258.878 264.536, 261.784 264.738 M 433.250 264.689 C 434.212 264.941, 435.788 264.941, 436.750 264.689 C 437.712 264.438, 436.925 264.232, 435 264.232 C 433.075 264.232, 432.288 264.438, 433.250 264.689 M 175.750 268.572 C 171.873 270.675, 172.312 271.401, 176.250 269.399 C 180.020 267.481, 180.687 266.985, 179.417 267.040 C 178.912 267.062, 177.262 267.751, 175.750 268.572 M 163 275 C 159.975 276.598, 157.950 277.906, 158.500 277.906 C 159.050 277.906, 161.975 276.598, 165 275 C 168.025 273.402, 170.050 272.094, 169.500 272.094 C 168.950 272.094, 166.025 273.402, 163 275 M 429.762 278.707 C 431.006 278.946, 432.806 278.937, 433.762 278.687 C 434.718 278.437, 433.700 278.241, 431.500 278.252 C 429.300 278.263, 428.518 278.468, 429.762 278.707 M 425.750 282.723 C 427.538 282.945, 430.462 282.945, 432.250 282.723 C 434.038 282.502, 432.575 282.320, 429 282.320 C 425.425 282.320, 423.962 282.502, 425.750 282.723 M 454.639 286.922 C 456.366 287.975, 458.018 289.435, 458.310 290.168 C 458.648 291.015, 458.871 291.071, 458.921 290.323 C 459.011 288.977, 454.294 284.998, 452.615 285.004 C 452.002 285.006, 452.913 285.869, 454.639 286.922 M 210.861 293.941 C 212.159 295.073, 213.697 296, 214.277 296 C 215.507 296, 215.448 295.950, 211.500 293.638 C 208.500 291.881, 208.500 291.881, 210.861 293.941 M 459.300 297 C 459.300 300.025, 459.487 301.262, 459.716 299.750 C 459.945 298.238, 459.945 295.762, 459.716 294.250 C 459.487 292.738, 459.300 293.975, 459.300 297 M 388.750 294.706 C 389.988 294.944, 392.012 294.944, 393.250 294.706 C 394.488 294.467, 393.475 294.272, 391 294.272 C 388.525 294.272, 387.512 294.467, 388.750 294.706 M 409.302 295.746 C 414.693 295.926, 423.243 295.925, 428.302 295.744 C 433.361 295.563, 428.950 295.416, 418.500 295.417 C 408.050 295.418, 403.911 295.566, 409.302 295.746 M 376.250 297.689 C 377.212 297.941, 378.788 297.941, 379.750 297.689 C 380.712 297.438, 379.925 297.232, 378 297.232 C 376.075 297.232, 375.288 297.438, 376.250 297.689 M 385.750 298.706 C 386.988 298.944, 389.012 298.944, 390.250 298.706 C 391.488 298.467, 390.475 298.272, 388 298.272 C 385.525 298.272, 384.512 298.467, 385.750 298.706 M 193 302.500 C 194.866 304.425, 196.617 306, 196.892 306 C 197.167 306, 195.866 304.425, 194 302.500 C 192.134 300.575, 190.383 299, 190.108 299 C 189.833 299, 191.134 300.575, 193 302.500 M 399.750 299.732 C 402.087 299.943, 405.913 299.943, 408.250 299.732 C 410.587 299.522, 408.675 299.349, 404 299.349 C 399.325 299.349, 397.413 299.522, 399.750 299.732 M 426.750 299.723 C 428.538 299.945, 431.462 299.945, 433.250 299.723 C 435.038 299.502, 433.575 299.320, 430 299.320 C 426.425 299.320, 424.962 299.502, 426.750 299.723 M 133 305.495 C 133 306.165, 145.122 312.211, 145.569 311.764 C 145.771 311.563, 143.025 309.962, 139.468 308.208 C 135.911 306.454, 133 305.233, 133 305.495 M 370.319 308.489 C 370.439 309.654, 371.346 310.561, 372.511 310.681 C 373.954 310.829, 374.036 310.747, 372.811 310.381 C 371.883 310.104, 370.896 309.117, 370.619 308.189 C 370.253 306.964, 370.171 307.046, 370.319 308.489 M 394.250 313.716 C 395.762 313.945, 398.238 313.945, 399.750 313.716 C 401.262 313.487, 400.025 313.300, 397 313.300 C 393.975 313.300, 392.738 313.487, 394.250 313.716 M 430.762 313.707 C 432.006 313.946, 433.806 313.937, 434.762 313.687 C 435.718 313.437, 434.700 313.241, 432.500 313.252 C 430.300 313.263, 429.518 313.468, 430.762 313.707" stroke="none" fill="#2f6cc0" fill-rule="evenodd"/><path d="M 391.536 265.113 C 377.838 267.108, 371.304 271.311, 370.304 278.772 C 369.650 283.644, 371.490 289.656, 374.053 291.028 C 378.260 293.280, 387.732 294.215, 412.668 294.842 C 427.061 295.204, 439.181 295.845, 439.601 296.267 C 440.022 296.688, 439.809 297.588, 439.127 298.267 C 437.591 299.796, 391.235 299.769, 380.500 298.233 C 376.650 297.682, 373.214 297.516, 372.864 297.865 C 372.514 298.214, 371.926 301.032, 371.557 304.127 C 370.925 309.430, 371.020 309.788, 373.193 310.330 C 380.760 312.217, 397.169 313.409, 415.500 313.404 C 442.510 313.395, 452.468 311.543, 457.228 305.642 C 459.448 302.889, 459.650 292.373, 457.540 289.360 C 454.330 284.777, 443.784 283.103, 413.500 282.368 C 389.008 281.774, 387.514 281.583, 390.441 279.429 C 393.805 276.953, 439.767 277.750, 451.644 280.490 C 453.978 281.029, 454.310 280.295, 455.519 271.905 L 456.181 267.310 441.840 265.640 C 426.729 263.880, 401.790 263.619, 391.536 265.113 M 93.503 268.250 C 93.179 270.038, 93.047 280.725, 93.207 292 L 93.500 312.500 103 312.500 L 112.500 312.500 112.571 304.560 C 112.614 299.799, 113.077 296.474, 113.728 296.257 C 114.325 296.058, 122.500 299.744, 131.896 304.448 L 148.978 313 165.989 313 C 176.696 313, 183 312.628, 183 311.997 C 183 311.446, 172.875 305.938, 160.500 299.757 C 148.125 293.577, 138 288.268, 138 287.960 C 138 287.652, 147.655 282.697, 159.455 276.950 C 171.255 271.202, 180.930 266.163, 180.955 265.750 C 180.980 265.337, 173.639 265, 164.643 265 L 148.286 265 138.893 269.623 C 126.060 275.938, 114.930 281, 113.875 281 C 113.394 281, 113 277.400, 113 273 L 113 265 103.545 265 L 94.091 265 93.503 268.250 M 189 281.193 L 189 297.387 194.250 302.443 C 202.071 309.977, 215.428 314.015, 232.434 313.987 C 241.549 313.972, 256.968 311.102, 262.049 308.474 L 265.434 306.724 259.467 301.338 C 254.289 296.663, 253.104 296.030, 250.500 296.546 C 248.850 296.873, 241.804 297.378, 234.843 297.668 C 224.941 298.081, 220.979 297.845, 216.640 296.584 C 208.557 294.234, 208 293.021, 208 277.777 L 208 265 198.500 265 L 189 265 189 281.193 M 256.058 279.489 L 256.160 293.977 262.258 299.496 L 268.356 305.014 270.773 302.757 C 275.471 298.370, 276 296.072, 276 280.050 L 276 265 265.978 265 L 255.957 265 256.058 279.489 M 342.417 288.750 L 342.500 312.500 352.250 312.786 L 362 313.072 362 289.036 L 362 265 352.167 265 L 342.334 265 342.417 288.750" stroke="none" fill="#1b3459" fill-rule="evenodd"/><path d="M 0 277.002 L 0 554.004 277.250 553.752 L 554.500 553.500 554.752 276.750 L 555.004 0 277.502 0 L 0 0 0 277.002 M 0.493 277.500 C 0.493 429.850, 0.609 492.026, 0.750 415.669 C 0.891 339.312, 0.891 214.662, 0.750 138.669 C 0.609 62.676, 0.493 125.150, 0.493 277.500 M 272.250 209.584 C 269.729 210.687, 268.995 211.622, 268.978 213.753 C 268.944 218.068, 265.897 223.783, 255.419 239.189 C 244.460 255.303, 241.120 259.222, 235.784 262.233 C 232.644 264.005, 232.306 264.503, 233.601 265.450 C 236.077 267.260, 231.864 270.370, 226.762 270.498 C 223.245 270.586, 222.520 270.973, 221.978 273.051 C 220.261 279.639, 225.637 285.964, 233 286.018 C 238.624 286.060, 252.274 293.168, 250.327 295.042 C 249.015 296.305, 238.201 298.001, 231.566 297.984 C 224.394 297.966, 215.087 295.942, 211.567 293.636 C 209.113 292.028, 209.050 291.680, 208.778 278.245 L 208.500 264.500 198.750 264.214 L 189 263.928 189 280.961 L 189 297.994 192.589 301.967 C 199.866 310.022, 212.830 313.954, 232.201 313.983 C 244.860 314.001, 251.263 313.048, 260.321 309.794 L 266.142 307.703 272.140 313.602 C 280.508 321.829, 284.963 328.172, 286.520 334.074 C 288.285 340.765, 290.101 343.346, 294.522 345.444 C 300.637 348.345, 308.510 345.782, 311.551 339.901 C 312.503 338.060, 313 333.997, 313 328.054 C 313 321.514, 313.571 317.359, 315.059 313.057 C 317.901 304.847, 339.185 268, 341.086 268 C 341.611 268, 342 277.574, 342 290.500 L 342 313 352 313 L 362 313 362 288.500 L 362 264 353 264 C 348.050 264, 344 263.753, 344 263.452 C 344 262.293, 349.709 257.835, 354.227 255.467 C 361.367 251.725, 363.473 246.462, 360.591 239.564 C 358.738 235.128, 355.885 234.290, 351.617 236.928 C 349.773 238.068, 347.305 239, 346.132 239 C 344.959 239, 344 239.436, 344 239.969 C 344 240.501, 343.333 240.681, 342.518 240.369 C 341.418 239.946, 341.289 239.328, 342.018 237.966 C 343.447 235.297, 343.507 235.339, 337.250 234.676 C 330.375 233.949, 322.089 231.164, 304.050 223.520 C 290.318 217.701, 282.865 213.359, 280.722 209.926 C 279.325 207.690, 276.814 207.589, 272.250 209.584 M 271.095 222.819 C 269.118 224.919, 263.060 233.243, 257.634 241.318 C 240.908 266.206, 239.419 273.412, 248.593 285.075 C 251.313 288.533, 253.980 291.284, 254.519 291.187 C 255.072 291.088, 255.718 285.222, 256 277.755 L 256.500 264.500 266.250 264.214 L 276 263.928 276 280.013 C 276 296.940, 275.472 299.453, 271.082 303.426 C 268.959 305.347, 268.959 305.347, 271.729 308.275 C 276.468 313.284, 286.323 319.784, 290.309 320.531 L 294.119 321.245 291.836 323.675 C 289.901 325.734, 289.777 326.250, 291.026 327.051 C 292.630 328.080, 297.785 327.344, 299.686 325.815 C 300.338 325.290, 302.138 324.506, 303.686 324.072 L 306.500 323.284 303.430 321.477 L 300.360 319.670 304.215 316.187 C 308.154 312.628, 316.362 300.854, 321.772 291 C 323.433 287.975, 326.909 281.923, 329.497 277.551 C 342.537 255.518, 342.928 247.862, 331.415 239.942 C 321.199 232.913, 286.648 219, 279.410 219 C 275.235 219, 274.275 219.441, 271.095 222.819 M 396.227 264.001 C 379.675 265.743, 371.996 269.589, 369.958 277.157 C 367.900 284.797, 371.104 291.143, 377.948 292.986 C 384.073 294.635, 403.745 295.983, 421.833 295.991 C 435.251 295.998, 439.073 296.282, 438.754 297.250 C 438.087 299.266, 422.326 299.982, 401.985 298.920 C 391.802 298.389, 381.080 297.576, 378.158 297.114 C 373.271 296.342, 372.784 296.443, 372.070 298.387 C 370.802 301.834, 369.987 309.874, 370.850 310.407 C 371.289 310.679, 377.454 311.650, 384.548 312.565 C 394.474 313.845, 402.637 314.123, 419.973 313.774 C 440.527 313.360, 443.105 313.109, 449.410 310.910 C 458.120 307.872, 460.326 304.627, 459.744 295.711 C 459.020 284.612, 454.211 283.056, 418.500 282.372 C 392.460 281.872, 389.049 281.551, 390.836 279.764 C 393.357 277.243, 429.470 277.791, 450.594 280.671 L 454.687 281.229 455.740 274.864 C 456.319 271.364, 456.442 268.125, 456.014 267.667 C 453.445 264.922, 411.762 262.365, 396.227 264.001 M 93 288.500 L 93 313 102.961 313 L 112.922 313 113.211 304.514 L 113.500 296.027 130.387 304.514 L 147.273 313 165.637 313 C 177.247 313, 184 312.631, 184 311.997 C 184 311.446, 173.875 305.938, 161.500 299.757 C 149.125 293.577, 139 288.271, 139 287.965 C 139 287.659, 148.545 282.705, 160.211 276.955 C 171.877 271.205, 181.439 266.050, 181.461 265.500 C 181.485 264.884, 175.329 264.395, 165.434 264.226 L 149.368 263.952 131.695 272.476 C 121.974 277.164, 113.791 281, 113.511 281 C 113.230 281, 113 277.175, 113 272.500 L 113 264 103 264 L 93 264 93 288.500" stroke="none" fill="#fbfbfb" fill-rule="evenodd"/></svg>