<svg xmlns="http://www.w3.org/2000/svg" width="1907" height="1395" viewBox="0 0 1907 1395" version="1.1"><path d="M 77.400 944.400 L 74 947.800 74.032 1087.650 L 74.064 1227.500 75.420 1229.288 L 76.775 1231.075 80.131 1232.038 L 83.487 1233 103.594 1233 L 123.702 1233 126.872 1231.895 L 130.042 1230.790 131.021 1228.961 L 132 1227.131 132 1184.066 L 132 1141 192.394 1141 L 252.788 1141 282.833 1184.790 L 312.879 1228.581 315.044 1230.540 L 317.209 1232.500 346.185 1232.500 L 375.160 1232.500 376.580 1230.559 L 378 1228.618 378 1226.008 L 378 1223.399 345.574 1178.950 L 313.149 1134.500 314.324 1133.865 L 315.500 1133.230 319 1132.532 L 322.500 1131.834 331.829 1127.356 L 341.159 1122.878 347.342 1116.689 L 353.525 1110.500 357.665 1102.500 L 361.805 1094.500 363.444 1089 L 365.084 1083.500 366.536 1074 L 367.988 1064.500 367.990 1038.500 L 367.992 1012.500 366.524 1003.500 L 365.057 994.500 363.421 989 L 361.786 983.500 358.143 976.107 L 354.500 968.714 348.363 962.107 L 342.226 955.500 336.698 952.179 L 331.169 948.858 324.136 946.412 L 317.102 943.966 307.301 942.489 L 297.500 941.012 189.150 941.006 L 80.800 941 77.400 944.400 M 490.500 941.647 L 486.500 942.008 476.544 943.600 L 466.588 945.192 460.044 947.196 L 453.500 949.200 445.500 953.282 L 437.500 957.365 428.980 965.932 L 420.460 974.500 416.240 983 L 412.020 991.500 409.509 1000.365 L 406.998 1009.229 405.499 1020.666 L 404 1032.102 404 1087 L 404 1141.898 405.499 1153.334 L 406.998 1164.771 409.544 1173.635 L 412.090 1182.500 416.251 1191 L 420.412 1199.500 428.956 1208.028 L 437.500 1216.557 444.500 1220.177 L 451.500 1223.797 459.642 1226.348 L 467.785 1228.899 479.142 1230.700 L 490.500 1232.500 566.500 1232.500 L 642.500 1232.500 652 1231.143 L 661.500 1229.786 670.871 1227.420 L 680.242 1225.054 687.371 1221.529 L 694.500 1218.004 700.242 1213.494 L 705.984 1208.984 710.543 1203.242 L 715.103 1197.500 719 1189.500 L 722.897 1181.500 724.939 1174 L 726.981 1166.500 728.600 1156 L 730.219 1145.500 730.713 1098 L 731.208 1050.500 730.110 1034.689 L 729.013 1018.878 726.952 1008.767 L 724.892 998.655 721.851 990.769 L 718.809 982.882 713.830 975.438 L 708.851 967.994 703.513 963.287 L 698.174 958.580 691.867 954.767 L 685.559 950.953 676.282 947.981 L 667.005 945.009 657.752 943.310 L 648.500 941.610 571.500 941.448 L 494.500 941.286 490.500 941.647 M 798.190 942.068 L 793.880 942.916 789.735 945.208 L 785.589 947.500 782.819 951.500 L 780.050 955.500 778.292 961.500 L 776.534 967.500 776.238 1097.161 L 775.943 1226.822 778.383 1229.661 L 780.823 1232.500 801.093 1232.827 L 821.363 1233.154 824.737 1232.521 L 828.112 1231.888 830.056 1229.944 L 832 1228 832 1117.082 L 832 1006.164 832.607 1004.582 L 833.214 1003 837.072 1003 L 840.930 1003 841.936 1004.880 L 842.942 1006.760 882.036 1102.630 L 921.130 1198.500 925.312 1206.353 L 929.495 1214.206 934.779 1220.046 L 940.064 1225.885 945.358 1228.389 L 950.652 1230.894 959.050 1231.947 L 967.448 1233 975.474 1232.992 L 983.500 1232.985 991.997 1232.008 L 1000.494 1231.031 1006.797 1227.928 L 1013.100 1224.825 1018.381 1218.423 L 1023.661 1212.021 1027.770 1203.761 L 1031.878 1195.500 1070.553 1100.500 L 1109.228 1005.500 1110.236 1004.250 L 1111.245 1003 1115.106 1003 L 1118.966 1003 1119.233 1115.472 L 1119.500 1227.945 1121.778 1230.222 L 1124.056 1232.500 1147.500 1232.500 L 1170.944 1232.500 1173.222 1230.222 L 1175.500 1227.945 1175.797 1106.722 L 1176.095 985.500 1175.038 974.348 L 1173.981 963.197 1172.451 958.848 L 1170.922 954.500 1168.512 950.848 L 1166.102 947.197 1160.301 944.348 L 1154.500 941.500 1122.500 941.500 L 1090.500 941.500 1085.661 942.905 L 1080.822 944.310 1075.571 949.109 L 1070.320 953.909 1067.225 960.204 L 1064.131 966.500 1023.617 1069.899 L 983.103 1173.297 982.001 1174.399 L 980.900 1175.500 976.500 1175.500 L 972.100 1175.500 971.125 1174.500 L 970.150 1173.500 929.167 1068.877 L 888.183 964.254 886.453 960.877 L 884.724 957.500 881.719 953.287 L 878.714 949.074 874.788 946.353 L 870.863 943.633 864.681 942.337 L 858.500 941.042 830.500 941.130 L 802.500 941.219 798.190 942.068 M 1303.015 942.151 L 1294.530 943.037 1286.015 945.043 L 1277.500 947.050 1270.798 949.594 L 1264.097 952.138 1258.143 955.986 L 1252.190 959.834 1248.003 963.616 L 1243.817 967.398 1239.528 973.449 L 1235.239 979.500 1232.736 984.500 L 1230.233 989.500 1227.715 997.500 L 1225.196 1005.500 1223.348 1016.500 L 1221.500 1027.500 1221.500 1086.500 L 1221.500 1145.500 1222.804 1154 L 1224.107 1162.500 1226.593 1172 L 1229.079 1181.500 1232.988 1189.500 L 1236.897 1197.500 1241.457 1203.242 L 1246.016 1208.984 1251.758 1213.494 L 1257.500 1218.004 1264.629 1221.529 L 1271.758 1225.054 1281.129 1227.427 L 1290.500 1229.800 1300.500 1231.150 L 1310.500 1232.500 1403.221 1232.500 L 1495.943 1232.500 1498.221 1230.222 L 1500.500 1227.944 1500.500 1202.884 L 1500.500 1177.823 1498.139 1175.912 L 1495.778 1174 1408.462 1174 L 1321.145 1174 1313.406 1172.924 L 1305.667 1171.847 1300.504 1169.916 L 1295.341 1167.984 1291.131 1164.380 L 1286.920 1160.776 1284.383 1155.769 L 1281.846 1150.762 1280.467 1144.171 L 1279.088 1137.580 1278.398 1124.290 L 1277.709 1111 1385.855 1111 L 1494 1111 1495.944 1109.056 L 1497.888 1107.112 1498.527 1103.706 L 1499.166 1100.300 1498.833 1082.176 L 1498.500 1064.051 1496.222 1061.776 L 1493.945 1059.500 1385.972 1059.237 L 1278 1058.974 1278.001 1055.237 L 1278.002 1051.500 1279.018 1040.785 L 1280.034 1030.069 1281.937 1023.953 L 1283.841 1017.837 1286.551 1013.926 L 1289.261 1010.015 1293.835 1006.986 L 1298.410 1003.956 1303.455 1002.252 L 1308.500 1000.547 1402.223 1000.024 L 1495.946 999.500 1498.223 997.224 L 1500.500 994.948 1500.803 971.810 L 1501.107 948.672 1499.986 945.966 L 1498.865 943.259 1496.385 942.130 L 1493.906 941 1402.703 941.133 L 1311.500 941.266 1303.015 942.151 M 1546.766 943.918 L 1543.500 946.836 1543.240 1086.850 L 1542.979 1226.865 1545.401 1229.682 L 1547.823 1232.500 1569.107 1232.825 L 1590.392 1233.149 1593.752 1232.519 L 1597.112 1231.888 1599.056 1229.944 L 1601 1228 1601 1184.500 L 1601 1141 1661.401 1141 L 1721.802 1141 1751.911 1184.854 L 1782.020 1228.708 1784.114 1230.604 L 1786.209 1232.500 1815.185 1232.500 L 1844.160 1232.500 1845.580 1230.559 L 1847 1228.618 1847 1225.987 L 1847 1223.357 1817.887 1183.429 L 1788.774 1143.500 1785.340 1138.801 L 1781.905 1134.103 1786.203 1133.034 L 1790.500 1131.966 1796 1129.833 L 1801.500 1127.700 1808.222 1123.292 L 1814.944 1118.884 1818.975 1114.192 L 1823.007 1109.500 1826.953 1101.943 L 1830.900 1094.387 1832.899 1086.943 L 1834.899 1079.500 1836.049 1071.353 L 1837.200 1063.206 1836.759 1033.353 L 1836.317 1003.500 1833.686 993.629 L 1831.054 983.758 1827.400 976.364 L 1823.747 968.970 1817.487 962.235 L 1811.226 955.500 1805.698 952.179 L 1800.169 948.858 1793.136 946.412 L 1786.102 943.966 1776.301 942.489 L 1766.500 941.012 1658.266 941.006 L 1550.032 941 1546.766 943.918 M 133.035 1000.934 L 132 1002.869 132 1045.963 L 132 1089.058 210.250 1088.779 L 288.500 1088.500 294.323 1085.641 L 300.146 1082.782 303.083 1078.727 L 306.020 1074.673 307.643 1069.586 L 309.267 1064.500 309.721 1047.500 L 310.174 1030.500 308.618 1023.141 L 307.062 1015.782 304.476 1011.368 L 301.889 1006.955 298.195 1004.522 L 294.500 1002.088 288.540 1000.544 L 282.580 999 208.325 999 L 134.070 999 133.035 1000.934 M 1602.035 1000.934 L 1601 1002.869 1601 1045.963 L 1601 1089.058 1679.250 1088.779 L 1757.500 1088.500 1763.258 1085.672 L 1769.017 1082.845 1771.582 1079.481 L 1774.147 1076.118 1776.225 1070.809 L 1778.304 1065.500 1778.744 1048 L 1779.185 1030.500 1777.623 1023.141 L 1776.062 1015.782 1773.476 1011.368 L 1770.889 1006.955 1766.948 1004.347 L 1763.007 1001.739 1757.254 1000.385 L 1751.500 999.031 1677.285 999.016 L 1603.070 999 1602.035 1000.934 M 491.251 1001.516 L 485.002 1002.874 479.928 1005.636 L 474.853 1008.398 471.768 1012.292 L 468.684 1016.187 466.444 1022.358 L 464.204 1028.529 463.015 1038.015 L 461.827 1047.500 462.260 1093 L 462.694 1138.500 464.343 1144.781 L 465.991 1151.063 468.104 1155.281 L 470.216 1159.500 473.358 1162.839 L 476.500 1166.179 481 1168.452 L 485.500 1170.726 491 1172.113 L 496.500 1173.500 567.500 1173.500 L 638.500 1173.500 644.967 1171.715 L 651.433 1169.930 656.102 1166.935 L 660.770 1163.939 663.339 1160.219 L 665.907 1156.500 667.435 1152.826 L 668.963 1149.152 670.482 1140.445 L 672 1131.738 671.965 1086.119 L 671.930 1040.500 670.555 1032.785 L 669.179 1025.071 666.533 1019.285 L 663.887 1013.500 661.193 1010.657 L 658.500 1007.814 653.631 1005.330 L 648.762 1002.846 642.131 1001.440 L 635.500 1000.035 566.500 1000.097 L 497.500 1000.159 491.251 1001.516 M 376 1281.656 L 373.500 1282.083 371.360 1283.151 L 369.221 1284.220 368.110 1286.657 L 367 1289.094 367 1292.047 L 367 1295 363.500 1295 L 360 1295 360 1299 L 360 1303 363.500 1303 L 367 1303 367 1316.500 L 367 1330 371.500 1330 L 376 1330 376 1316.500 L 376 1303 382 1303 L 388 1303 388 1299 L 388 1295 382 1295 L 376 1295 376 1294.082 L 376 1293.164 376.607 1291.582 L 377.214 1290 381.857 1289.985 L 386.500 1289.969 387.824 1289.130 L 389.148 1288.290 388.824 1284.895 L 388.500 1281.500 383.500 1281.364 L 378.500 1281.229 376 1281.656 M 1219.024 1282 L 1215.548 1282.840 1213.774 1285.031 L 1212 1287.222 1211.985 1289.861 L 1211.969 1292.500 1211.231 1293.660 L 1210.493 1294.820 1207.497 1295.160 L 1204.500 1295.500 1204.500 1299 L 1204.500 1302.500 1207.750 1302.813 L 1211 1303.127 1211.015 1315.313 L 1211.031 1327.500 1211.867 1328.819 L 1212.704 1330.138 1216.602 1329.819 L 1220.500 1329.500 1220.779 1316.250 L 1221.058 1303 1227.029 1303 L 1233 1303 1233 1299 L 1233 1295 1227 1295 L 1221 1295 1221.015 1293.750 L 1221.031 1292.500 1221.785 1291.314 L 1222.539 1290.128 1227.519 1289.814 L 1232.500 1289.500 1232.500 1285.500 L 1232.500 1281.500 1227.500 1281.330 L 1222.500 1281.160 1219.024 1282 M 751.714 1282.619 L 751 1283.333 751 1287.667 L 751 1292 755.555 1292 L 760.110 1292 759.805 1287.250 L 759.500 1282.500 755.964 1282.202 L 752.429 1281.905 751.714 1282.619 M 1191.054 1283.435 L 1189.864 1284.869 1190.182 1288.185 L 1190.500 1291.500 1195.250 1291.805 L 1200 1292.110 1200 1287.662 L 1200 1283.214 1198.418 1282.607 L 1196.836 1282 1194.541 1282 L 1192.245 1282 1191.054 1283.435 M 1238.714 1282.619 L 1238 1283.333 1238 1287.667 L 1238 1292 1242.555 1292 L 1247.110 1292 1246.805 1287.250 L 1246.500 1282.500 1242.964 1282.202 L 1239.429 1281.905 1238.714 1282.619 M 1300.054 1283.435 L 1298.864 1284.869 1299.182 1288.185 L 1299.500 1291.500 1304.250 1291.805 L 1309 1292.110 1309 1287.662 L 1309 1283.214 1307.418 1282.607 L 1305.836 1282 1303.541 1282 L 1301.245 1282 1300.054 1283.435 M 1589.181 1282.867 L 1587.862 1283.704 1588.181 1287.602 L 1588.500 1291.500 1593 1291.500 L 1597.500 1291.500 1597.818 1288.185 L 1598.136 1284.869 1596.946 1283.435 L 1595.755 1282 1593.128 1282.015 L 1590.500 1282.031 1589.181 1282.867 M 613.006 1300.750 L 613.011 1318.500 614.055 1322.259 L 615.099 1326.019 617.754 1327.759 L 620.408 1329.500 633.279 1329.852 L 646.149 1330.205 650.593 1329.538 L 655.037 1328.872 657.769 1326.524 L 660.500 1324.177 660.782 1313.838 L 661.064 1303.500 659.768 1301 L 658.472 1298.500 654.986 1296.752 L 651.500 1295.003 637.250 1295.002 L 623 1295 623 1289 L 623 1283 618 1283 L 613 1283 613.006 1300.750 M 1023 1289 L 1023 1295 1009.250 1295.056 L 995.500 1295.113 992 1296.306 L 988.500 1297.500 986.752 1301 L 985.003 1304.500 985.003 1312.500 L 985.003 1320.500 986.752 1324 L 988.500 1327.500 992 1328.694 L 995.500 1329.887 1009 1329.887 L 1022.500 1329.887 1026 1328.694 L 1029.500 1327.500 1031.248 1324 L 1032.997 1320.500 1032.998 1301.750 L 1033 1283 1028 1283 L 1023 1283 1023 1289 M 1365.232 1306.250 L 1365.500 1329.500 1370 1329.500 L 1374.500 1329.500 1374.768 1306.250 L 1375.037 1283 1370 1283 L 1364.963 1283 1365.232 1306.250 M 1555 1306.500 L 1555 1330 1559.500 1330 L 1564 1330 1564 1306.500 L 1564 1283 1559.500 1283 L 1555 1283 1555 1306.500 M 1571.232 1306.250 L 1571.500 1329.500 1576 1329.500 L 1580.500 1329.500 1580.768 1306.250 L 1581.037 1283 1576 1283 L 1570.963 1283 1571.232 1306.250 M 75.500 1287.403 L 72.500 1288.727 70.638 1290.816 L 68.776 1292.905 67.735 1300.202 L 66.694 1307.500 67.423 1314.215 L 68.152 1320.929 70.338 1324.174 L 72.525 1327.419 77.013 1328.726 L 81.500 1330.033 98 1329.766 L 114.500 1329.500 114.500 1325 L 114.500 1320.500 97.211 1320 L 79.923 1319.500 78.957 1318 L 77.992 1316.500 78.246 1307.027 L 78.500 1297.554 81 1296.292 L 83.500 1295.029 99.250 1295.015 L 115 1295 115 1290.500 L 115 1286 96.750 1286.039 L 78.500 1286.078 75.500 1287.403 M 229 1290.500 L 229 1295 225.500 1295 L 222 1295 222 1299 L 222 1303 225.500 1303 L 229 1303 229 1313.545 L 229 1324.091 231.388 1326.479 L 233.777 1328.867 237.141 1329.499 L 240.505 1330.130 245.503 1329.815 L 250.500 1329.500 250.500 1326 L 250.500 1322.500 245.193 1321.967 L 239.886 1321.434 238.958 1319.967 L 238.031 1318.500 238.015 1310.750 L 238 1303 244 1303 L 250 1303 250 1299 L 250 1295 244 1295 L 238 1295 238 1290.500 L 238 1286 233.500 1286 L 229 1286 229 1290.500 M 506 1308.055 L 506 1330.110 510.750 1329.805 L 515.500 1329.500 515.796 1322.750 L 516.091 1316 525.796 1316.055 L 535.500 1316.110 540.801 1323.055 L 546.101 1330 550.992 1330 L 555.882 1330 556.358 1329.230 L 556.834 1328.459 551.588 1322.015 L 546.341 1315.571 549.406 1313.505 L 552.471 1311.440 553.721 1308.970 L 554.971 1306.500 554.982 1300.500 L 554.993 1294.500 552.996 1291.225 L 550.999 1287.950 548.434 1286.975 L 545.870 1286 525.935 1286 L 506 1286 506 1308.055 M 724.667 1286.667 L 724 1287.333 724 1291.103 L 724 1294.873 720.750 1295.187 L 717.500 1295.500 717.500 1299 L 717.500 1302.500 720.619 1302.804 L 723.738 1303.107 724.214 1312.992 L 724.690 1322.878 726.397 1325.483 L 728.105 1328.089 730.617 1329.045 L 733.130 1330 739.565 1330 L 746 1330 746 1326 L 746 1322 741.200 1322 L 736.400 1322 735.200 1320.800 L 734 1319.600 734 1311.300 L 734 1303 740 1303 L 746 1303 746 1299 L 746 1295 740 1295 L 734 1295 734 1290.500 L 734 1286 729.667 1286 L 725.333 1286 724.667 1286.667 M 1080.780 1287.250 L 1079.178 1288.500 1068.589 1308.038 L 1058 1327.576 1058 1328.788 L 1058 1330 1062.958 1330 L 1067.916 1330 1070.553 1325.500 L 1073.190 1321 1087.366 1321 L 1101.542 1321 1104 1325.500 L 1106.458 1330 1111.729 1330 L 1117 1330 1117 1329.346 L 1117 1328.692 1106.285 1309.132 L 1095.571 1289.571 1093.785 1287.785 L 1092 1286 1087.191 1286 L 1082.382 1286 1080.780 1287.250 M 1164.667 1286.667 L 1164 1287.333 1164 1291.103 L 1164 1294.873 1160.750 1295.187 L 1157.500 1295.500 1157.500 1299 L 1157.500 1302.500 1160.619 1302.804 L 1163.738 1303.107 1164.214 1312.992 L 1164.690 1322.878 1166.397 1325.483 L 1168.105 1328.089 1170.617 1329.045 L 1173.130 1330 1179.565 1330 L 1186 1330 1186 1326 L 1186 1322 1181.200 1322 L 1176.400 1322 1175.200 1320.800 L 1174 1319.600 1174 1311.300 L 1174 1303 1180 1303 L 1186 1303 1186 1299 L 1186 1295 1180 1295 L 1174 1295 1174 1290.500 L 1174 1286 1169.667 1286 L 1165.333 1286 1164.667 1286.667 M 1403.230 1307.750 L 1403.500 1329.500 1408.250 1329.805 L 1413 1330.110 1413 1308.055 L 1413 1286 1407.980 1286 L 1402.961 1286 1403.230 1307.750 M 1479.667 1286.667 L 1479 1287.333 1479 1291.103 L 1479 1294.873 1475.750 1295.187 L 1472.500 1295.500 1472.500 1299 L 1472.500 1302.500 1475.619 1302.804 L 1478.738 1303.107 1479.214 1312.992 L 1479.690 1322.878 1481.397 1325.483 L 1483.105 1328.089 1485.617 1329.045 L 1488.130 1330 1494.565 1330 L 1501 1330 1501 1326 L 1501 1322 1496.200 1322 L 1491.400 1322 1490.200 1320.800 L 1489 1319.600 1489 1311.300 L 1489 1303 1495 1303 L 1501 1303 1501 1299 L 1501 1295 1495 1295 L 1489 1295 1489 1290.500 L 1489 1286 1484.667 1286 L 1480.333 1286 1479.667 1286.667 M 127.327 1295.696 L 125.154 1296.119 122.640 1298.633 L 120.126 1301.147 119.436 1306.666 L 118.746 1312.185 119.409 1317.823 L 120.072 1323.460 121.533 1325.691 L 122.995 1327.921 126.949 1328.986 L 130.904 1330.051 146.702 1329.776 L 162.500 1329.500 162.806 1325.820 L 163.112 1322.139 147.018 1321.820 L 130.923 1321.500 129.977 1320 L 129.031 1318.500 129.015 1316.774 L 129 1315.047 146.250 1314.774 L 163.500 1314.500 163.824 1309.500 L 164.148 1304.500 163.083 1300.915 L 162.018 1297.329 159.462 1296.165 L 156.906 1295 143.203 1295.136 L 129.500 1295.272 127.327 1295.696 M 176.255 1296.117 L 173.010 1297.054 171.255 1299.730 L 169.500 1302.406 169.500 1315.953 L 169.500 1329.500 174 1329.500 L 178.500 1329.500 178.785 1318.061 L 179.069 1306.622 180.157 1305.311 L 181.245 1304 193.587 1304 L 205.930 1304 206.965 1305.934 L 208 1307.869 208 1318.934 L 208 1330 212.500 1330 L 217 1330 217 1316.223 L 217 1302.445 215.369 1300.117 L 213.739 1297.789 210.401 1296.394 L 207.064 1295 193.282 1295.090 L 179.500 1295.180 176.255 1296.117 M 261.327 1295.696 L 259.154 1296.119 256.640 1298.633 L 254.126 1301.147 253.436 1306.666 L 252.746 1312.185 253.409 1317.823 L 254.072 1323.460 255.533 1325.691 L 256.995 1327.921 260.949 1328.986 L 264.904 1330.051 280.702 1329.776 L 296.500 1329.500 296.806 1325.820 L 297.112 1322.139 281.018 1321.820 L 264.923 1321.500 263.977 1320 L 263.031 1318.500 263.015 1316.774 L 263 1315.047 280.250 1314.774 L 297.500 1314.500 297.824 1309.500 L 298.148 1304.500 297.083 1300.915 L 296.018 1297.329 293.462 1296.165 L 290.906 1295 277.203 1295.136 L 263.500 1295.272 261.327 1295.696 M 311.284 1295.687 L 309.068 1296.130 306.534 1299.142 L 304 1302.153 304 1316.077 L 304 1330 308.500 1330 L 313 1330 313 1318.691 L 313 1307.382 314.416 1305.441 L 315.832 1303.500 326.666 1303 L 337.500 1302.500 337.500 1299 L 337.500 1295.500 325.500 1295.372 L 313.500 1295.243 311.284 1295.687 M 399 1296.306 L 395.500 1297.500 393.752 1301 L 392.003 1304.500 392.003 1312.500 L 392.003 1320.500 393.752 1324 L 395.500 1327.500 399 1328.694 L 402.500 1329.887 415.500 1329.938 L 428.500 1329.989 432.100 1328.989 L 435.700 1327.989 437.600 1325.892 L 439.500 1323.795 439.782 1313.648 L 440.064 1303.500 438.768 1301 L 437.472 1298.500 433.986 1296.752 L 430.500 1295.003 416.500 1295.058 L 402.500 1295.113 399 1296.306 M 454.284 1295.687 L 452.068 1296.130 449.534 1299.142 L 447 1302.153 447 1316.077 L 447 1330 451.500 1330 L 456 1330 456 1318.691 L 456 1307.382 457.416 1305.441 L 458.832 1303.500 469.666 1303 L 480.500 1302.500 480.500 1299 L 480.500 1295.500 468.500 1295.372 L 456.500 1295.243 454.284 1295.687 M 516 1301.500 L 516 1308 528.929 1308 L 541.857 1308 543.429 1306.429 L 545 1304.857 545 1301.500 L 545 1298.143 543.429 1296.571 L 541.857 1295 528.929 1295 L 516 1295 516 1301.500 M 566 1296.306 L 562.500 1297.500 560.752 1301 L 559.003 1304.500 559.003 1312.500 L 559.003 1320.500 560.752 1324 L 562.500 1327.500 566 1328.694 L 569.500 1329.887 582.500 1329.938 L 595.500 1329.989 599.100 1328.989 L 602.700 1327.989 604.600 1325.892 L 606.500 1323.795 606.782 1313.648 L 607.064 1303.500 605.768 1301 L 604.472 1298.500 600.986 1296.752 L 597.500 1295.003 583.500 1295.058 L 569.500 1295.113 566 1296.306 M 673.014 1296.752 L 669.528 1298.500 668.232 1301 L 666.936 1303.500 667.218 1313.648 L 667.500 1323.795 669.400 1325.892 L 671.300 1327.989 674.900 1328.989 L 678.500 1329.989 691.500 1329.938 L 704.500 1329.887 708 1328.694 L 711.500 1327.500 713.248 1324 L 714.997 1320.500 714.997 1312.500 L 714.997 1304.500 713.248 1301 L 711.500 1297.500 708 1296.306 L 704.500 1295.113 690.500 1295.058 L 676.500 1295.003 673.014 1296.752 M 751 1312.500 L 751 1330 755.500 1330 L 760 1330 760 1312.500 L 760 1295 755.500 1295 L 751 1295 751 1312.500 M 772.014 1296.738 L 768.528 1298.500 767.232 1301 L 765.936 1303.500 766.218 1313.838 L 766.500 1324.177 769.231 1326.524 L 771.963 1328.872 776.231 1329.489 L 780.500 1330.106 794 1329.803 L 807.500 1329.500 807.500 1326 L 807.500 1322.500 793 1322 L 778.500 1321.500 777.250 1320.691 L 776 1319.882 776 1312.500 L 776 1305.118 777.250 1304.309 L 778.500 1303.500 793 1303 L 807.500 1302.500 807.500 1299 L 807.500 1295.500 791.500 1295.238 L 775.500 1294.977 772.014 1296.738 M 816.500 1296.142 L 814.500 1297.249 813.250 1298.815 L 812 1300.382 812 1305.056 L 812 1309.730 814.073 1312.365 L 816.145 1315 829.823 1315.015 L 843.500 1315.031 844.837 1315.878 L 846.175 1316.726 845.837 1319.113 L 845.500 1321.500 828.750 1321.774 L 812 1322.048 812 1326.084 L 812 1330.119 831.398 1329.809 L 850.795 1329.500 852.898 1327.595 L 855 1325.690 855 1319.345 L 855 1313 853 1311 L 851 1309 837.122 1309 L 823.245 1309 822.105 1307.627 L 820.965 1306.253 821.590 1304.627 L 822.214 1303 838.167 1303 L 854.121 1303 853.810 1299.250 L 853.500 1295.500 836 1295.268 L 818.500 1295.036 816.500 1296.142 M 882 1299 L 882 1303 896.566 1303 L 911.131 1303 913.066 1304.035 L 915 1305.070 915 1306.963 L 915 1308.856 900.102 1309.178 L 885.204 1309.500 883.102 1311.405 L 881 1313.310 881 1319.500 L 881 1325.690 883.102 1327.595 L 885.204 1329.500 903.674 1329.813 L 922.144 1330.125 923.572 1328.940 L 925 1327.755 924.985 1315.628 L 924.971 1303.500 923.721 1301 L 922.472 1298.500 918.986 1296.752 L 915.500 1295.003 898.750 1295.002 L 882 1295 882 1299 M 937.378 1296.437 L 934.257 1297.796 932.628 1300.120 L 931 1302.445 931 1316.223 L 931 1330 935.395 1330 L 939.789 1330 940.145 1317.964 L 940.500 1305.927 942 1304.963 L 943.500 1303.998 956 1304.249 L 968.500 1304.500 969 1317 L 969.500 1329.500 974 1329.500 L 978.500 1329.500 978.764 1317 L 979.028 1304.500 977.264 1301 L 975.500 1297.500 972 1296.306 L 968.500 1295.113 954.500 1295.096 L 940.500 1295.078 937.378 1296.437 M 1084.760 1299.185 L 1082.254 1303.500 1080.127 1307.710 L 1078 1311.920 1078 1312.460 L 1078 1313 1087.517 1313 L 1097.034 1313 1094.614 1308.250 L 1092.195 1303.500 1089.730 1299.185 L 1087.266 1294.870 1084.760 1299.185 M 1127.378 1296.421 L 1124.257 1297.796 1122.628 1300.120 L 1121 1302.445 1121 1316.223 L 1121 1330 1125.395 1330 L 1129.789 1330 1130.146 1317.918 L 1130.503 1305.837 1132.442 1304.418 L 1134.382 1303 1144.751 1303 L 1155.121 1303 1154.810 1299.250 L 1154.500 1295.500 1142.500 1295.274 L 1130.500 1295.047 1127.378 1296.421 M 1191 1312.500 L 1191 1330 1195.500 1330 L 1200 1330 1200 1312.500 L 1200 1295 1195.500 1295 L 1191 1295 1191 1312.500 M 1238 1312.500 L 1238 1330 1242.500 1330 L 1247 1330 1247 1312.500 L 1247 1295 1242.500 1295 L 1238 1295 1238 1312.500 M 1259.014 1296.738 L 1255.528 1298.500 1254.232 1301 L 1252.936 1303.500 1253.218 1313.838 L 1253.500 1324.177 1256.231 1326.524 L 1258.963 1328.872 1263.231 1329.489 L 1267.500 1330.106 1281 1329.803 L 1294.500 1329.500 1294.500 1326 L 1294.500 1322.500 1280 1322 L 1265.500 1321.500 1264.250 1320.691 L 1263 1319.882 1263 1312.500 L 1263 1305.118 1264.250 1304.309 L 1265.500 1303.500 1280 1303 L 1294.500 1302.500 1294.500 1299 L 1294.500 1295.500 1278.500 1295.238 L 1262.500 1294.977 1259.014 1296.738 M 1300 1312.500 L 1300 1330 1304.500 1330 L 1309 1330 1309 1312.500 L 1309 1295 1304.500 1295 L 1300 1295 1300 1312.500 M 1316 1298.931 L 1316 1302.862 1332.038 1303.181 L 1348.077 1303.500 1349.023 1305 L 1349.969 1306.500 1349.985 1307.680 L 1350 1308.859 1334.409 1309.180 L 1318.819 1309.500 1316.909 1311.861 L 1315 1314.222 1315 1319.500 L 1315 1324.778 1316.910 1327.139 L 1318.819 1329.500 1337.482 1329.813 L 1356.144 1330.125 1357.572 1328.940 L 1359 1327.755 1359 1315.100 L 1359 1302.445 1357.369 1300.117 L 1355.739 1297.789 1352.401 1296.394 L 1349.064 1295 1332.532 1295 L 1316 1295 1316 1298.931 M 1427.255 1296.117 L 1424.010 1297.054 1422.255 1299.730 L 1420.500 1302.406 1420.500 1315.953 L 1420.500 1329.500 1425 1329.500 L 1429.500 1329.500 1429.785 1318.061 L 1430.069 1306.622 1431.157 1305.311 L 1432.245 1304 1444.587 1304 L 1456.930 1304 1457.965 1305.934 L 1459 1307.869 1459 1318.934 L 1459 1330 1463.500 1330 L 1468 1330 1468 1316.223 L 1468 1302.445 1466.369 1300.117 L 1464.739 1297.789 1461.401 1296.394 L 1458.064 1295 1444.282 1295.090 L 1430.500 1295.180 1427.255 1296.117 M 1512.327 1295.696 L 1510.154 1296.119 1507.640 1298.633 L 1505.126 1301.147 1504.436 1306.666 L 1503.746 1312.185 1504.409 1317.823 L 1505.072 1323.460 1506.533 1325.691 L 1507.995 1327.921 1511.949 1328.986 L 1515.904 1330.051 1531.702 1329.776 L 1547.500 1329.500 1547.806 1325.820 L 1548.112 1322.139 1532.018 1321.820 L 1515.923 1321.500 1514.977 1320 L 1514.031 1318.500 1514.015 1316.774 L 1514 1315.047 1531.250 1314.774 L 1548.500 1314.500 1548.824 1309.500 L 1549.148 1304.500 1548.083 1300.915 L 1547.018 1297.329 1544.462 1296.165 L 1541.906 1295 1528.203 1295.136 L 1514.500 1295.272 1512.327 1295.696 M 1588.464 1296.232 L 1587.947 1297.580 1588.224 1313.540 L 1588.500 1329.500 1593 1329.500 L 1597.500 1329.500 1597.500 1312.500 L 1597.500 1295.500 1593.241 1295.192 L 1588.982 1294.884 1588.464 1296.232 M 1611 1296.306 L 1607.500 1297.500 1605.752 1301 L 1604.003 1304.500 1604.002 1311.349 L 1604 1318.198 1605.548 1321.460 L 1607.096 1324.723 1609.798 1326.040 L 1612.500 1327.356 1627.250 1327.787 L 1642 1328.218 1642 1330.487 L 1642 1332.755 1640.678 1333.852 L 1639.357 1334.949 1622.928 1335.224 L 1606.500 1335.500 1606.500 1339.500 L 1606.500 1343.500 1624.500 1343.500 L 1642.500 1343.500 1645.873 1342.078 L 1649.246 1340.655 1650.623 1337.360 L 1652 1334.064 1651.998 1319.282 L 1651.997 1304.500 1650.248 1301 L 1648.500 1297.500 1645 1296.306 L 1641.500 1295.113 1628 1295.113 L 1614.500 1295.113 1611 1296.306 M 1665.327 1295.696 L 1663.154 1296.119 1660.640 1298.633 L 1658.126 1301.147 1657.436 1306.666 L 1656.746 1312.185 1657.409 1317.823 L 1658.072 1323.460 1659.533 1325.691 L 1660.995 1327.921 1664.949 1328.986 L 1668.904 1330.051 1684.702 1329.776 L 1700.500 1329.500 1700.806 1325.820 L 1701.112 1322.139 1685.018 1321.820 L 1668.923 1321.500 1667.977 1320 L 1667.031 1318.500 1667.015 1316.774 L 1667 1315.047 1684.250 1314.774 L 1701.500 1314.500 1701.824 1309.500 L 1702.148 1304.500 1701.083 1300.915 L 1700.018 1297.329 1697.462 1296.165 L 1694.906 1295 1681.203 1295.136 L 1667.500 1295.272 1665.327 1295.696 M 1715.284 1295.701 L 1713.068 1296.130 1710.534 1299.142 L 1708 1302.153 1708 1316.077 L 1708 1330 1712.500 1330 L 1717 1330 1717 1318.934 L 1717 1307.869 1718.035 1305.934 L 1719.070 1304 1731.413 1304 L 1743.755 1304 1744.843 1305.311 L 1745.931 1306.622 1746.215 1318.061 L 1746.500 1329.500 1751 1329.500 L 1755.500 1329.500 1755.500 1315.953 L 1755.500 1302.406 1753.759 1299.752 L 1752.019 1297.099 1748.259 1296.055 L 1744.500 1295.011 1731 1295.142 L 1717.500 1295.272 1715.284 1295.701 M 1767.014 1296.738 L 1763.528 1298.500 1762.232 1301 L 1760.936 1303.500 1761.218 1313.838 L 1761.500 1324.177 1764.231 1326.524 L 1766.963 1328.872 1771.231 1329.489 L 1775.500 1330.106 1789 1329.803 L 1802.500 1329.500 1802.500 1326 L 1802.500 1322.500 1788 1322 L 1773.500 1321.500 1772.250 1320.691 L 1771 1319.882 1771 1312.500 L 1771 1305.118 1772.250 1304.309 L 1773.500 1303.500 1788 1303 L 1802.500 1302.500 1802.500 1299 L 1802.500 1295.500 1786.500 1295.238 L 1770.500 1294.977 1767.014 1296.738 M 1814.327 1295.696 L 1812.154 1296.119 1809.640 1298.633 L 1807.126 1301.147 1806.436 1306.666 L 1805.746 1312.185 1806.409 1317.823 L 1807.072 1323.460 1808.533 1325.691 L 1809.995 1327.921 1813.949 1328.986 L 1817.904 1330.051 1833.702 1329.776 L 1849.500 1329.500 1849.806 1325.820 L 1850.112 1322.139 1834.018 1321.820 L 1817.923 1321.500 1816.977 1320 L 1816.031 1318.500 1816.015 1316.774 L 1816 1315.047 1833.250 1314.774 L 1850.500 1314.500 1850.824 1309.500 L 1851.148 1304.500 1850.083 1300.915 L 1849.018 1297.329 1846.462 1296.165 L 1843.906 1295 1830.203 1295.136 L 1816.500 1295.272 1814.327 1295.696 M 130.200 1304.200 L 129 1305.400 129 1307.200 L 129 1309 141.500 1309 L 154 1309 154 1306 L 154 1303 142.700 1303 L 131.400 1303 130.200 1304.200 M 264.200 1304.200 L 263 1305.400 263 1307.200 L 263 1309 275.500 1309 L 288 1309 288 1306 L 288 1303 276.700 1303 L 265.400 1303 264.200 1304.200 M 403.750 1304.080 L 402 1305.099 402 1312.515 L 402 1319.930 403.934 1320.965 L 405.869 1322 416 1322 L 426.131 1322 428.066 1320.965 L 430 1319.930 430 1312.500 L 430 1305.070 428.066 1304.035 L 426.131 1303 415.816 1303.030 L 405.500 1303.061 403.750 1304.080 M 570.750 1304.080 L 569 1305.099 569 1312.515 L 569 1319.930 570.934 1320.965 L 572.869 1322 583 1322 L 593.131 1322 595.066 1320.965 L 597 1319.930 597 1312.500 L 597 1305.070 595.066 1304.035 L 593.131 1303 582.816 1303.030 L 572.500 1303.061 570.750 1304.080 M 623.015 1310.750 L 623.031 1318.500 623.977 1320 L 624.924 1321.500 635.212 1321.828 L 645.500 1322.155 648.250 1321.102 L 651 1320.050 651 1312.560 L 651 1305.070 649.066 1304.035 L 647.131 1303 635.066 1303 L 623 1303 623.015 1310.750 M 678.750 1304.080 L 677 1305.099 677 1312.515 L 677 1319.930 678.934 1320.965 L 680.869 1322 691 1322 L 701.131 1322 703.066 1320.965 L 705 1319.930 705 1312.500 L 705 1305.070 703.066 1304.035 L 701.131 1303 690.816 1303.030 L 680.500 1303.061 678.750 1304.080 M 998 1303.729 L 996.500 1304.300 995.765 1305.400 L 995.031 1306.500 995.031 1312.500 L 995.031 1318.500 995.977 1320 L 996.924 1321.500 1007.212 1321.828 L 1017.500 1322.155 1020.250 1321.102 L 1023 1320.050 1023 1311.525 L 1023 1303 1011.250 1303.079 L 999.500 1303.158 998 1303.729 M 1515.200 1304.200 L 1514 1305.400 1514 1307.200 L 1514 1309 1526.500 1309 L 1539 1309 1539 1306 L 1539 1303 1527.700 1303 L 1516.400 1303 1515.200 1304.200 M 1615.750 1304.080 L 1614 1305.099 1614 1311.350 L 1614 1317.600 1615.200 1318.800 L 1616.400 1320 1629.200 1320 L 1642 1320 1642 1312.535 L 1642 1305.070 1640.066 1304.035 L 1638.131 1303 1627.816 1303.030 L 1617.500 1303.061 1615.750 1304.080 M 1668.200 1304.200 L 1667 1305.400 1667 1307.200 L 1667 1309 1679.500 1309 L 1692 1309 1692 1306 L 1692 1303 1680.700 1303 L 1669.400 1303 1668.200 1304.200 M 1817.200 1304.200 L 1816 1305.400 1816 1307.200 L 1816 1309 1828.500 1309 L 1841 1309 1841 1306 L 1841 1303 1829.700 1303 L 1818.400 1303 1817.200 1304.200 M 891.692 1315.701 L 889.883 1316.169 890.192 1318.835 L 890.500 1321.500 902.750 1321.781 L 915 1322.062 915 1318.531 L 915 1315 904.250 1315.116 L 893.500 1315.232 891.692 1315.701 M 1325.582 1316.316 L 1323.783 1317.632 1324.154 1319.566 L 1324.525 1321.500 1337.262 1321.780 L 1350 1322.060 1350 1318.530 L 1350 1315 1338.691 1315 L 1327.382 1315 1325.582 1316.316" stroke="none" fill="#eef2f7" fill-rule="evenodd"/><path d="M 1046.076 57.524 L 1038.652 58.868 1031.501 62.402 L 1024.351 65.936 1019.102 71.485 L 1013.854 77.035 1010.050 85.267 L 1006.245 93.500 1004.603 100.500 L 1002.962 107.500 1002.027 115.080 L 1001.092 122.659 1000.430 142.080 L 999.768 161.500 1000.888 178 L 1002.009 194.500 1004.025 202.901 L 1006.042 211.302 1009.186 217.901 L 1012.331 224.500 1018.415 230.592 L 1024.500 236.685 1032.280 240.427 L 1040.060 244.168 1048.946 245.989 L 1057.832 247.809 1071.166 248.479 L 1084.500 249.149 1089.940 250.658 L 1095.381 252.166 1101.973 255.487 L 1108.566 258.807 1116.533 264.727 L 1124.500 270.647 1138 282.981 L 1151.500 295.315 1157.500 299.793 L 1163.500 304.271 1167.500 306.114 L 1171.500 307.956 1175.790 307.978 L 1180.080 308 1184.053 305.973 L 1188.027 303.946 1191.107 299.723 L 1194.188 295.500 1196.967 290 L 1199.745 284.500 1202.434 276.500 L 1205.122 268.500 1208.494 254.824 L 1211.867 241.148 1215.390 220.324 L 1218.912 199.500 1221.118 183.500 L 1223.324 167.500 1223.307 156 L 1223.290 144.500 1221.095 136.557 L 1218.900 128.613 1214.723 120.557 L 1210.546 112.500 1202.523 104.372 L 1194.500 96.243 1185.740 90.552 L 1176.980 84.861 1168.740 81.010 L 1160.500 77.160 1148.742 73.115 L 1136.983 69.071 1124.742 66.076 L 1112.500 63.082 1101 61.025 L 1089.500 58.968 1077.530 57.484 L 1065.560 56 1059.530 56.090 L 1053.500 56.180 1046.076 57.524 M 578.500 207.709 L 579.500 208.648 596.500 210.917 L 613.500 213.186 642.500 218.022 L 671.500 222.858 690 226.500 L 708.500 230.141 726.500 234.125 L 744.500 238.108 760.368 242.095 L 776.236 246.082 794.868 251.481 L 813.500 256.881 828.279 261.938 L 843.059 266.996 854.779 271.582 L 866.500 276.169 882.500 284.001 L 898.500 291.833 910.779 299.966 L 923.058 308.100 931.918 316.800 L 940.778 325.500 944.856 331.854 L 948.934 338.208 951.142 343.854 L 953.350 349.500 953.425 358.500 L 953.500 367.500 951.151 375 L 948.802 382.500 944.375 391.344 L 939.947 400.188 935.806 406.344 L 931.664 412.500 925.334 420.145 L 919.003 427.789 910.752 435.570 L 902.500 443.351 892.809 450.578 L 883.119 457.805 874.309 463.234 L 865.500 468.662 857 473.221 L 848.500 477.780 837.644 482.603 L 826.787 487.426 828.644 488.202 L 830.500 488.979 857.500 494.535 L 884.500 500.092 913.740 506.581 L 942.980 513.070 952.740 516.066 L 962.500 519.062 976.328 524.093 L 990.156 529.125 1005.828 535.472 L 1021.500 541.819 1037.962 548.912 L 1054.424 556.005 1055.572 554.752 L 1056.720 553.500 1068.171 539.500 L 1079.622 525.500 1092.636 509 L 1105.650 492.500 1117.575 476.511 L 1129.500 460.523 1137.812 448.011 L 1146.124 435.500 1149.548 428.500 L 1152.973 421.500 1154.486 412.619 L 1156 403.738 1156 392 L 1156 380.262 1154.475 371.381 L 1152.950 362.500 1149.965 352.812 L 1146.980 343.123 1141.542 332.260 L 1136.103 321.396 1128.302 313.716 L 1120.500 306.037 1115 301.931 L 1109.500 297.826 1097.763 290.850 L 1086.026 283.874 1074.263 278.324 L 1062.500 272.774 1049 267.309 L 1035.500 261.844 1016.500 255.499 L 997.500 249.154 977.313 243.631 L 957.127 238.109 934.813 233.103 L 912.500 228.098 895 225.066 L 877.500 222.033 858 219.525 L 838.500 217.016 817.500 215.037 L 796.500 213.059 773 211.540 L 749.500 210.022 728 208.962 L 706.500 207.901 642 207.336 L 577.500 206.771 578.500 207.709 M 786.763 512.033 L 782.027 512.830 776.763 514.556 L 771.500 516.282 762.515 520.769 L 753.530 525.256 746.015 530.301 L 738.500 535.347 730.500 541.407 L 722.500 547.466 712.500 556.061 L 702.500 564.655 689.086 577.578 L 675.672 590.500 661.053 606.089 L 646.434 621.679 632.924 637.089 L 619.414 652.500 606.909 667.500 L 594.404 682.500 582.400 697.500 L 570.396 712.500 556.855 730 L 543.314 747.500 530.362 765 L 517.410 782.500 507.160 796.787 L 496.909 811.073 496.356 812.516 L 495.802 813.958 510.636 804.815 L 525.469 795.673 542.984 785.799 L 560.500 775.926 581.500 765.561 L 602.500 755.197 615.446 749.506 L 628.391 743.815 641.946 738.337 L 655.500 732.859 673.282 726.426 L 691.064 719.993 712.782 713.426 L 734.500 706.858 760.462 700.405 L 786.423 693.951 803.462 690.523 L 820.500 687.094 838 684.564 L 855.500 682.034 871 680.441 L 886.500 678.847 920.194 678.296 L 953.888 677.744 970.194 678.918 L 986.500 680.093 1003.500 682.063 L 1020.500 684.033 1036 686.590 L 1051.500 689.146 1066 692.137 L 1080.500 695.127 1094.500 698.626 L 1108.500 702.126 1122.500 706.157 L 1136.500 710.188 1153 715.731 L 1169.500 721.275 1189.086 729.096 L 1208.671 736.916 1225.086 744.528 L 1241.500 752.139 1254 758.742 L 1266.500 765.344 1282.696 774.614 L 1298.892 783.884 1316.627 795.052 L 1334.361 806.219 1358.931 822.487 L 1383.500 838.756 1400 850.507 L 1416.500 862.259 1432.500 874.311 L 1448.500 886.364 1463 897.989 L 1477.500 909.615 1478.905 910.462 L 1480.309 911.309 1479.457 909.905 L 1478.604 908.500 1451.444 876 L 1424.284 843.500 1408.710 826.874 L 1393.136 810.249 1373.818 792.216 L 1354.500 774.183 1339.200 761.055 L 1323.900 747.926 1306.526 734.049 L 1289.152 720.171 1271.826 707.258 L 1254.500 694.344 1237.500 682.470 L 1220.500 670.597 1204.828 660.327 L 1189.156 650.057 1171.828 639.689 L 1154.500 629.321 1135 618.489 L 1115.500 607.657 1089.500 594.525 L 1063.500 581.393 1045 573.259 L 1026.500 565.125 1011.500 559.173 L 996.500 553.220 980.072 547.581 L 963.644 541.942 950.072 538.035 L 936.500 534.128 924.352 531.075 L 912.204 528.022 894.852 524.545 L 877.500 521.067 864.500 519.076 L 851.500 517.085 838.500 515.537 L 825.500 513.990 809 512.499 L 792.500 511.008 792 511.122 L 791.500 511.235 786.763 512.033" stroke="none" fill="#cd1b33" fill-rule="evenodd"/></svg>